  0
SECTION
  2
HEADER
  9
$ACADVER
  1
AC1024
  9
$ACADMAINTVER
 70
     6
  9
$DWGCODEPAGE
  3
UNDEFINED
  9
$INSBASE
 10
0.0
 20
0.0
 30
0.0
  9
$EXTMIN
 10
1.000000000000000E+20
 20
1.000000000000000E+20
 30
1.000000000000000E+20
  9
$EXTMAX
 10
-1.000000000000000E+20
 20
-1.000000000000000E+20
 30
-1.000000000000000E+20
  9
$LIMMIN
 10
0.0
 20
0.0
  9
$LIMMAX
 10
12.0
 20
9.0
  9
$ORTHOMODE
 70
     0
  9
$REGENMODE
 70
     1
  9
$FILLMODE
 70
     1
  9
$QTEXTMODE
 70
     0
  9
$MIRRTEXT
 70
     1
  9
$LTSCALE
 40
1.0
  9
$ATTMODE
 70
     1
  9
$TEXTSIZE
 40
0.2
  9
$TRACEWID
 40
0.05
  9
$TEXTSTYLE
  7
Standard
  9
$CLAYER
  8
0
  9
$CELTYPE
  6
ByLayer
  9
$CECOLOR
 62
   256
  9
$CELTSCALE
 40
1.0
  9
$DISPSILH
 70
     0
  9
$DIMSCALE
 40
1.0
  9
$DIMASZ
 40
0.18
  9
$DIMEXO
 40
0.0625
  9
$DIMDLI
 40
0.38
  9
$DIMRND
 40
0.0
  9
$DIMDLE
 40
0.0
  9
$DIMEXE
 40
0.18
  9
$DIMTP
 40
0.0
  9
$DIMTM
 40
0.0
  9
$DIMTXT
 40
0.18
  9
$DIMCEN
 40
0.09
  9
$DIMTSZ
 40
0.0
  9
$DIMTOL
 70
     0
  9
$DIMLIM
 70
     0
  9
$DIMTIH
 70
     1
  9
$DIMTOH
 70
     1
  9
$DIMSE1
 70
     0
  9
$DIMSE2
 70
     0
  9
$DIMTAD
 70
     0
  9
$DIMZIN
 70
     0
  9
$DIMBLK
  1

  9
$DIMASO
 70
     1
  9
$DIMSHO
 70
     1
  9
$DIMPOST
  1

  9
$DIMAPOST
  1

  9
$DIMALT
 70
     0
  9
$DIMALTD
 70
     2
  9
$DIMALTF
 40
25.4
  9
$DIMLFAC
 40
1.0
  9
$DIMTOFL
 70
     0
  9
$DIMTVP
 40
0.0
  9
$DIMTIX
 70
     0
  9
$DIMSOXD
 70
     0
  9
$DIMSAH
 70
     0
  9
$DIMBLK1
  1

  9
$DIMBLK2
  1

  9
$DIMSTYLE
  2
Standard
  9
$DIMCLRD
 70
     0
  9
$DIMCLRE
 70
     0
  9
$DIMCLRT
 70
     0
  9
$DIMTFAC
 40
1.0
  9
$DIMGAP
 40
0.09
  9
$DIMJUST
 70
     0
  9
$DIMSD1
 70
     0
  9
$DIMSD2
 70
     0
  9
$DIMTOLJ
 70
     1
  9
$DIMTZIN
 70
     0
  9
$DIMALTZ
 70
     0
  9
$DIMALTTZ
 70
     0
  9
$DIMUPT
 70
     0
  9
$DIMDEC
 70
     4
  9
$DIMTDEC
 70
     4
  9
$DIMALTU
 70
     2
  9
$DIMALTTD
 70
     2
  9
$DIMTXSTY
  7
Standard
  9
$DIMAUNIT
 70
     0
  9
$DIMADEC
 70
     0
  9
$DIMALTRND
 40
0.0
  9
$DIMAZIN
 70
     0
  9
$DIMDSEP
 70
    46
  9
$DIMATFIT
 70
     3
  9
$DIMFRAC
 70
     0
  9
$DIMLDRBLK
  1

  9
$DIMLUNIT
 70
     2
  9
$DIMLWD
 70
    -2
  9
$DIMLWE
 70
    -2
  9
$DIMTMOVE
 70
     0
  9
$DIMFXL
 40
1.0
  9
$DIMFXLON
 70
     0
  9
$DIMJOGANG
 40
0.7853981633974483
  9
$DIMTFILL
 70
     0
  9
$DIMTFILLCLR
 70
     0
  9
$DIMARCSYM
 70
     0
  9
$DIMLTYPE
  6

  9
$DIMLTEX1
  6

  9
$DIMLTEX2
  6

  9
$DIMTXTDIRECTION
 70
     0
  9
$LUNITS
 70
     2
  9
$LUPREC
 70
     4
  9
$SKETCHINC
 40
0.1
  9
$FILLETRAD
 40
0.5
  9
$AUNITS
 70
     0
  9
$AUPREC
 70
     0
  9
$MENU
  1
.
  9
$ELEVATION
 40
0.0
  9
$PELEVATION
 40
0.0
  9
$THICKNESS
 40
0.0
  9
$LIMCHECK
 70
     0
  9
$CHAMFERA
 40
0.5
  9
$CHAMFERB
 40
0.5
  9
$CHAMFERC
 40
1.0
  9
$CHAMFERD
 40
0.0
  9
$SKPOLY
 70
     0
  9
$TDCREATE
 40
2458984.476944433
  9
$TDUCREATE
 40
2458984.810277778
  9
$TDUPDATE
 40
2458984.476944433
  9
$TDUUPDATE
 40
2458984.810277778
  9
$TDINDWG
 40
0.0000000116
  9
$TDUSRTIMER
 40
0.0000000116
  9
$USRTIMER
 70
     1
  9
$ANGBASE
 50
0.0
  9
$ANGDIR
 70
     0
  9
$PDMODE
 70
     0
  9
$PDSIZE
 40
0.0
  9
$PLINEWID
 40
0.0
  9
$SPLFRAME
 70
     0
  9
$SPLINETYPE
 70
     6
  9
$SPLINESEGS
 70
     8
  9
$HANDSEED
  5
61
  9
$SURFTAB1
 70
     6
  9
$SURFTAB2
 70
     6
  9
$SURFTYPE
 70
     6
  9
$SURFU
 70
     6
  9
$SURFV
 70
     6
  9
$UCSBASE
  2

  9
$UCSNAME
  2

  9
$UCSORG
 10
0.0
 20
0.0
 30
0.0
  9
$UCSXDIR
 10
1.0
 20
0.0
 30
0.0
  9
$UCSYDIR
 10
0.0
 20
1.0
 30
0.0
  9
$UCSORTHOREF
  2

  9
$UCSORTHOVIEW
 70
     0
  9
$UCSORGTOP
 10
0.0
 20
0.0
 30
0.0
  9
$UCSORGBOTTOM
 10
0.0
 20
0.0
 30
0.0
  9
$UCSORGLEFT
 10
0.0
 20
0.0
 30
0.0
  9
$UCSORGRIGHT
 10
0.0
 20
0.0
 30
0.0
  9
$UCSORGFRONT
 10
0.0
 20
0.0
 30
0.0
  9
$UCSORGBACK
 10
0.0
 20
0.0
 30
0.0
  9
$PUCSBASE
  2

  9
$PUCSNAME
  2

  9
$PUCSORG
 10
0.0
 20
0.0
 30
0.0
  9
$PUCSXDIR
 10
1.0
 20
0.0
 30
0.0
  9
$PUCSYDIR
 10
0.0
 20
1.0
 30
0.0
  9
$PUCSORTHOREF
  2

  9
$PUCSORTHOVIEW
 70
     0
  9
$PUCSORGTOP
 10
0.0
 20
0.0
 30
0.0
  9
$PUCSORGBOTTOM
 10
0.0
 20
0.0
 30
0.0
  9
$PUCSORGLEFT
 10
0.0
 20
0.0
 30
0.0
  9
$PUCSORGRIGHT
 10
0.0
 20
0.0
 30
0.0
  9
$PUCSORGFRONT
 10
0.0
 20
0.0
 30
0.0
  9
$PUCSORGBACK
 10
0.0
 20
0.0
 30
0.0
  9
$USERI1
 70
     0
  9
$USERI2
 70
     0
  9
$USERI3
 70
     0
  9
$USERI4
 70
     0
  9
$USERI5
 70
     0
  9
$USERR1
 40
0.0
  9
$USERR2
 40
0.0
  9
$USERR3
 40
0.0
  9
$USERR4
 40
0.0
  9
$USERR5
 40
0.0
  9
$WORLDVIEW
 70
     1
  9
$SHADEDGE
 70
     3
  9
$SHADEDIF
 70
    70
  9
$TILEMODE
 70
     1
  9
$MAXACTVP
 70
    64
  9
$PINSBASE
 10
0.0
 20
0.0
 30
0.0
  9
$PLIMCHECK
 70
     0
  9
$PEXTMIN
 10
1.000000000000000E+20
 20
1.000000000000000E+20
 30
1.000000000000000E+20
  9
$PEXTMAX
 10
-1.000000000000000E+20
 20
-1.000000000000000E+20
 30
-1.000000000000000E+20
  9
$PLIMMIN
 10
0.0
 20
0.0
  9
$PLIMMAX
 10
12.0
 20
9.0
  9
$UNITMODE
 70
     0
  9
$VISRETAIN
 70
     1
  9
$PLINEGEN
 70
     0
  9
$PSLTSCALE
 70
     1
  9
$TREEDEPTH
 70
  3020
  9
$CMLSTYLE
  2
Standard
  9
$CMLJUST
 70
     0
  9
$CMLSCALE
 40
1.0
  9
$PROXYGRAPHICS
 70
     1
  9
$MEASUREMENT
 70
     0
  9
$CELWEIGHT
370
    -1
  9
$ENDCAPS
280
     0
  9
$JOINSTYLE
280
     0
  9
$LWDISPLAY
290
     1
  9
$INSUNITS
 70
     4
  9
$HYPERLINKBASE
  1

  9
$STYLESHEET
  1

  9
$XEDIT
290
     1
  9
$CEPSNTYPE
380
     0
  9
$PSTYLEMODE
290
     1
  9
$FINGERPRINTGUID
  2
{25B0C2FB-0FF9-7D8D-BC50-A4A9C1C8BA1C}
  9
$VERSIONGUID
  2
{FAEB1C32-E019-11D5-929B-00C0DF256EC4}
  9
$EXTNAMES
290
     1
  9
$PSVPSCALE
 40
0.0
  9
$OLESTARTUP
290
     0
  9
$SORTENTS
280
   127
  9
$INDEXCTL
280
     0
  9
$HIDETEXT
280
     1
  9
$XCLIPFRAME
280
     2
  9
$HALOGAP
280
     0
  9
$OBSCOLOR
 70
   257
  9
$OBSLTYPE
280
     0
  9
$INTERSECTIONDISPLAY
280
     0
  9
$INTERSECTIONCOLOR
 70
   257
  9
$DIMASSOC
280
     2
  9
$PROJECTNAME
  1

  9
$CAMERADISPLAY
290
     0
  9
$LENSLENGTH
 40
50.0
  9
$CAMERAHEIGHT
 40
0.0
  9
$STEPSPERSEC
 40
2.0
  9
$STEPSIZE
 40
6.0
  9
$3DDWFPREC
 40
2.0
  9
$PSOLWIDTH
 40
0.25
  9
$PSOLHEIGHT
 40
4.0
  9
$LOFTANG1
 40
1.570796326794897
  9
$LOFTANG2
 40
1.570796326794897
  9
$LOFTMAG1
 40
0.0
  9
$LOFTMAG2
 40
0.0
  9
$LOFTPARAM
 70
     7
  9
$LOFTNORMALS
280
     1
  9
$LATITUDE
 40
37.795
  9
$LONGITUDE
 40
-122.394
  9
$NORTHDIRECTION
 40
0.0
  9
$TIMEZONE
 70
 -8000
  9
$LIGHTGLYPHDISPLAY
280
     1
  9
$TILEMODELIGHTSYNCH
280
     1
  9
$CMATERIAL
347
3C
  9
$SOLIDHIST
280
     1
  9
$SHOWHIST
280
     1
  9
$DWFFRAME
280
     2
  9
$DGNFRAME
280
     2
  9
$REALWORLDSCALE
290
     1
  9
$INTERFERECOLOR
 62
   256
  9
$CSHADOW
280
     0
  9
$SHADOWPLANELOCATION
 40
0.0
  0
ENDSEC
  0
SECTION
  2
CLASSES
  0
CLASS
  1
ACDBDICTIONARYWDFLT
  2
AcDbDictionaryWithDefault
  3
ObjectDBX Classes
 90
        0
 91
        4
280
     0
281
     0
  0
CLASS
  1
VISUALSTYLE
  2
AcDbVisualStyle
  3
ObjectDBX Classes
 90
     4095
 91
        4
280
     0
281
     0
  0
CLASS
  1
MATERIAL
  2
AcDbMaterial
  3
ObjectDBX Classes
 90
     1153
 91
        4
280
     0
281
     0
  0
CLASS
  1
SUN
  2
AcDbSun
  3
SCENEOE
 90
     1024
 91
        4
280
     0
281
     0
  0
ENDSEC
  0
SECTION
  2
TABLES
  0
TABLE
  2
VPORT
  5
8
330
0
100
AcDbSymbolTable
 70
     1
  0
VPORT
  5
29
330
8
100
AcDbSymbolTableRecord
100
AcDbViewportTableRecord
  2
*Active
 70
     0
 10
0.0
 20
0.0
 11
1.0
 21
1.0
 12
0.0
 22
0.0
 13
0.0
 23
0.0
 14
0.5
 24
0.5
 15
0.5
 25
0.5
 16
0.0
 26
0.0
 36
1.0
 17
104.9999999737534
 27
-148.4999999628701
 37
0.0
 40
296.9999999257402
 41
0.7070707070707533
 42
50.0
 43
0.0
 44
0.0
 50
0.0
 51
0.0
 71
     0
 72
   100
 73
     1
 74
     3
 75
     0
 76
     0
 77
     0
 78
     0
281
     0
 65
     1
110
0.0
120
0.0
130
0.0
111
1.0
121
0.0
131
0.0
112
0.0
122
1.0
132
0.0
 79
     0
146
0.0
 60
     3
 61
     5
292
     1
282
     1
141
0.0
142
0.0
 63
   250
361
3F
  0
ENDTAB
  0
TABLE
  2
LTYPE
  5
5
330
0
100
AcDbSymbolTable
 70
     1
  0
LTYPE
  5
14
330
5
100
AcDbSymbolTableRecord
100
AcDbLinetypeTableRecord
  2
ByBlock
 70
     0
  3

 72
    65
 73
     0
 40
0.0
  0
LTYPE
  5
15
330
5
100
AcDbSymbolTableRecord
100
AcDbLinetypeTableRecord
  2
ByLayer
 70
     0
  3

 72
    65
 73
     0
 40
0.0
  0
LTYPE
  5
16
330
5
100
AcDbSymbolTableRecord
100
AcDbLinetypeTableRecord
  2
Continuous
 70
     0
  3
Solid line
 72
    65
 73
     0
 40
0.0
  0
ENDTAB
  0
TABLE
  2
LAYER
  5
2
330
0
100
AcDbSymbolTable
 70
     2
  0
LAYER
  5
10
330
2
100
AcDbSymbolTableRecord
100
AcDbLayerTableRecord
  2
0
 70
     0
 62
     7
  6
Continuous
370
    -3
390
F
347
3E
  0
LAYER
  5
40
330
2
100
AcDbSymbolTableRecord
100
AcDbLayerTableRecord
  2
Layer 1
 70
     0
 62
     7
  6
Continuous
370
    -3
390
F
347
3E
  0
ENDTAB
  0
TABLE
  2
STYLE
  5
3
330
0
100
AcDbSymbolTable
 70
     1
  0
STYLE
  5
11
330
3
100
AcDbSymbolTableRecord
100
AcDbTextStyleTableRecord
  2
Standard
 70
     0
 40
0.0
 41
1.0
 50
0.0
 71
     0
 42
0.2
  3
txt
  4

  0
ENDTAB
  0
TABLE
  2
VIEW
  5
6
330
0
100
AcDbSymbolTable
 70
     0
  0
ENDTAB
  0
TABLE
  2
UCS
  5
7
330
0
100
AcDbSymbolTable
 70
     0
  0
ENDTAB
  0
TABLE
  2
APPID
  5
9
330
0
100
AcDbSymbolTable
 70
     1
  0
APPID
  5
12
330
9
100
AcDbSymbolTableRecord
100
AcDbRegAppTableRecord
  2
ACAD
 70
     0
  0
ENDTAB
  0
TABLE
  2
DIMSTYLE
  5
A
330
0
100
AcDbSymbolTable
 70
     1
100
AcDbDimStyleTable
  0
DIMSTYLE
105
27
330
A
100
AcDbSymbolTableRecord
100
AcDbDimStyleTableRecord
  2
Standard
 70
     0
178
     0
340
11
  0
ENDTAB
  0
TABLE
  2
BLOCK_RECORD
  5
1
330
0
100
AcDbSymbolTable
 70
     2
  0
BLOCK_RECORD
  5
1F
330
1
100
AcDbSymbolTableRecord
100
AcDbBlockTableRecord
  2
*Model_Space
340
22
 70
     0
280
     1
281
     0
  0
BLOCK_RECORD
  5
1B
330
1
100
AcDbSymbolTableRecord
100
AcDbBlockTableRecord
  2
*Paper_Space
340
1E
 70
     0
280
     1
281
     0
  0
BLOCK_RECORD
  5
23
330
1
100
AcDbSymbolTableRecord
100
AcDbBlockTableRecord
  2
*Paper_Space0
340
26
 70
     0
280
     1
281
     0
  0
BLOCK_RECORD
  5
55
330
1
100
AcDbSymbolTableRecord
100
AcDbBlockTableRecord
  2
block 2
340
0
102
{BLKREFS
331
56
102
}
 70
     0
280
     1
281
     0
  0
ENDTAB
  0
ENDSEC
  0
SECTION
  2
BLOCKS
  0
BLOCK
  5
20
330
1F
100
AcDbEntity
  8
0
100
AcDbBlockBegin
  2
*Model_Space
 70
     0
 10
0.0
 20
0.0
 30
0.0
  3
*Model_Space
  1

  0
ENDBLK
  5
21
330
1F
100
AcDbEntity
  8
0
100
AcDbBlockEnd
  0
BLOCK
  5
1C
330
1B
100
AcDbEntity
 67
     1
  8
0
100
AcDbBlockBegin
  2
*Paper_Space
 70
     0
 10
0.0
 20
0.0
 30
0.0
  3
*Paper_Space
  1

  0
ENDBLK
  5
1D
330
1B
100
AcDbEntity
 67
     1
  8
0
100
AcDbBlockEnd
  0
BLOCK
  5
24
330
23
100
AcDbEntity
  8
0
100
AcDbBlockBegin
  2
*Paper_Space0
 70
     0
 10
0.0
 20
0.0
 30
0.0
  3
*Paper_Space0
  1

  0
ENDBLK
  5
25
330
23
100
AcDbEntity
  8
0
100
AcDbBlockEnd
  0
BLOCK
  5
57
330
55
100
AcDbEntity
  8
0
100
AcDbBlockBegin
  2
block 2
 70
     0
 10
0.0
 20
0.0
 30
0.0
  3
block 2
  1

  0
SPLINE
  5
59
330
55
100
AcDbEntity
  8
Layer 1
 62
   179
420
  2301728
370
    35
100
AcDbSpline
210
0.0
220
0.0
230
1.0
 70
    11
 71
     3
 72
    26
 73
    22
 74
     0
 42
0.0000000001
 43
0.0000000001
 12
1.0
 22
0.0
 32
0.0
 13
1.0
 23
0.0
 33
0.0
 40
0.0
 40
0.0
 40
0.0
 40
0.0
 40
1.0
 40
1.0
 40
1.0
 40
2.0
 40
2.0
 40
2.0
 40
3.0
 40
3.0
 40
3.0
 40
4.0
 40
4.0
 40
4.0
 40
5.0
 40
5.0
 40
5.0
 40
6.0
 40
6.0
 40
6.0
 40
7.0
 40
7.0
 40
7.0
 40
7.0
 10
37.4860421992939
 20
-83.96474373913838
 30
0.0
 10
37.71260178851654
 20
-85.22968912858678
 30
0.0
 10
37.7910450357349
 20
-86.78216748738187
 30
0.0
 10
38.28996747511974
 20
-88.18485688555447
 30
0.0
 10
38.98977199932065
 20
-90.1523171164756
 30
0.0
 10
40.49724051264722
 20
-91.29877753793275
 30
0.0
 10
42.69474032831828
 20
-91.32732257099376
 30
0.0
 10
44.85995954622044
 20
-91.35545966450633
 30
0.0
 10
46.52737472032342
 20
-90.33394683228953
 30
0.0
 10
47.30119450346446
 20
-88.2274328919923
 30
0.0
 10
48.38760987581166
 20
-85.26997852650968
 30
0.0
 10
48.32467933858652
 20
-82.2467707471514
 30
0.0
 10
47.17366790465416
 20
-79.32608998480825
 30
0.0
 10
46.3539992665067
 20
-77.24618336472186
 30
0.0
 10
44.58361660241437
 20
-76.31896897944044
 30
0.0
 10
42.25611469842321
 20
-76.45270337182492
 30
0.0
 10
40.24838006180623
 20
-76.56805901407826
 30
0.0
 10
38.70393476205253
 20
-77.77853910633544
 30
0.0
 10
38.13218787341603
 20
-79.90332981187686
 30
0.0
 10
37.80140561642414
 20
-81.13262879956672
 30
0.0
 10
37.72050028971459
 20
-82.4292485478134
 30
0.0
 10
37.4860421992939
 20
-83.96474373913838
 30
0.0
  0
SPLINE
  5
5A
330
55
100
AcDbEntity
  8
Layer 1
 62
   179
420
  2301728
370
    35
100
AcDbSpline
210
0.0
220
0.0
230
1.0
 70
    11
 71
     3
 72
    38
 73
    34
 74
     0
 42
0.0000000001
 43
0.0000000001
 12
1.0
 22
0.0
 32
0.0
 13
1.0
 23
0.0
 33
0.0
 40
0.0
 40
0.0
 40
0.0
 40
0.0
 40
1.0
 40
1.0
 40
1.0
 40
2.0
 40
2.0
 40
2.0
 40
3.0
 40
3.0
 40
3.0
 40
4.0
 40
4.0
 40
4.0
 40
5.0
 40
5.0
 40
5.0
 40
6.0
 40
6.0
 40
6.0
 40
7.0
 40
7.0
 40
7.0
 40
8.0
 40
8.0
 40
8.0
 40
9.0
 40
9.0
 40
9.0
 40
10.0
 40
10.0
 40
10.0
 40
11.0
 40
11.0
 40
11.0
 40
11.0
 10
30.33137598122803
 20
-81.5105311138931
 30
0.0
 10
30.3596201632737
 20
-82.13751809523092
 30
0.0
 10
30.39524119677812
 20
-82.58267675860728
 30
0.0
 10
30.39709312040371
 20
-83.02797498024943
 30
0.0
 10
30.40607515113873
 20
-85.1878753249879
 30
0.0
 10
30.35308814301273
 20
-87.3498261027143
 30
0.0
 10
30.43522853247296
 20
-89.50673131235556
 30
0.0
 10
30.46799054992401
 20
-90.36701140612375
 30
0.0
 10
30.71148833416118
 20
-91.45997807062761
 30
0.0
 10
31.90925245838133
 20
-91.19644912306582
 30
0.0
 10
32.52394359190591
 20
-91.06120642788127
 30
0.0
 10
33.45221326903049
 20
-90.31015751553065
 30
0.0
 10
33.46766831594289
 20
-89.81338376416876
 30
0.0
 10
33.59284145641561
 20
-85.78981159754586
 30
0.0
 10
33.56608712748264
 20
-81.7599217355654
 30
0.0
 10
33.48692778524866
 20
-77.73390193165886
 30
0.0
 10
33.47862161947213
 20
-77.31141611891194
 30
0.0
 10
32.90230057334962
 20
-76.71333916917645
 30
0.0
 10
32.45832970987666
 20
-76.546690496475
 30
0.0
 10
32.11745239057259
 20
-76.41873703688597
 30
0.0
 10
31.49640356703353
 20
-76.74779395804724
 30
0.0
 10
31.12758245011015
 20
-77.03673861293214
 30
0.0
 10
29.7746737929225
 20
-78.0966353359754
 30
0.0
 10
28.42440690947973
 20
-79.17139501436766
 30
0.0
 10
27.18181577370232
 20
-80.35481153823653
 30
0.0
 10
26.72345864183223
 20
-80.79133905961174
 30
0.0
 10
26.56617789283564
 20
-81.5444223020731
 30
0.0
 10
26.27157720814376
 20
-82.15312715054101
 30
0.0
 10
26.98333274128815
 20
-82.29850392290106
 30
0.0
 10
27.71864699583564
 20
-82.62485556074877
 30
0.0
 10
28.39991753275803
 20
-82.5360428271988
 30
0.0
 10
29.0247935757226
 20
-82.4545944760033
 30
0.0
 10
29.5913749250365
 20
-81.92530901624588
 30
0.0
 10
30.33137598122803
 20
-81.5105311138931
 30
0.0
  0
SPLINE
  5
5B
330
55
100
AcDbEntity
  8
Layer 1
 62
   179
420
  2301728
370
    35
100
AcDbSpline
210
0.0
220
0.0
230
1.0
 70
    11
 71
     3
 72
    26
 73
    22
 74
     0
 42
0.0000000001
 43
0.0000000001
 12
1.0
 22
0.0
 32
0.0
 13
1.0
 23
0.0
 33
0.0
 40
0.0
 40
0.0
 40
0.0
 40
0.0
 40
1.0
 40
1.0
 40
1.0
 40
2.0
 40
2.0
 40
2.0
 40
3.0
 40
3.0
 40
3.0
 40
4.0
 40
4.0
 40
4.0
 40
5.0
 40
5.0
 40
5.0
 40
6.0
 40
6.0
 40
6.0
 40
7.0
 40
7.0
 40
7.0
 40
7.0
 10
37.4860421992939
 20
-83.96474373913838
 30
0.0
 10
37.72050028971459
 20
-82.4292485478134
 30
0.0
 10
37.80140561642414
 20
-81.13262879956672
 30
0.0
 10
38.13218787341603
 20
-79.90332981187686
 30
0.0
 10
38.70393476205253
 20
-77.77853910633544
 30
0.0
 10
40.24838006180623
 20
-76.56805901407826
 30
0.0
 10
42.25611469842321
 20
-76.45270337182492
 30
0.0
 10
44.58361660241437
 20
-76.31896897944044
 30
0.0
 10
46.3539992665067
 20
-77.24618336472186
 30
0.0
 10
47.17366790465416
 20
-79.32608998480825
 30
0.0
 10
48.32467933858652
 20
-82.2467707471514
 30
0.0
 10
48.38760987581166
 20
-85.26997852650968
 30
0.0
 10
47.30119450346446
 20
-88.2274328919923
 30
0.0
 10
46.52737472032342
 20
-90.33394683228953
 30
0.0
 10
44.85995954622044
 20
-91.35545966450633
 30
0.0
 10
42.69474032831828
 20
-91.32732257099376
 30
0.0
 10
40.49724051264722
 20
-91.29877753793275
 30
0.0
 10
38.98977199932065
 20
-90.1523171164756
 30
0.0
 10
38.28996747511974
 20
-88.18485688555447
 30
0.0
 10
37.7910450357349
 20
-86.78216748738187
 30
0.0
 10
37.71260178851654
 20
-85.22968912858678
 30
0.0
 10
37.4860421992939
 20
-83.96474373913838
 30
0.0
  0
SPLINE
  5
5C
330
55
100
AcDbEntity
  8
Layer 1
 62
   179
420
  2301728
370
    35
100
AcDbSpline
210
0.0
220
0.0
230
1.0
 70
    11
 71
     3
 72
    26
 73
    22
 74
     0
 42
0.0000000001
 43
0.0000000001
 12
1.0
 22
0.0
 32
0.0
 13
1.0
 23
0.0
 33
0.0
 40
0.0
 40
0.0
 40
0.0
 40
0.0
 40
1.0
 40
1.0
 40
1.0
 40
2.0
 40
2.0
 40
2.0
 40
3.0
 40
3.0
 40
3.0
 40
4.0
 40
4.0
 40
4.0
 40
5.0
 40
5.0
 40
5.0
 40
6.0
 40
6.0
 40
6.0
 40
7.0
 40
7.0
 40
7.0
 40
7.0
 10
44.95505803705323
 20
-83.91419144102566
 30
0.0
 10
44.78381745826348
 20
-82.6749033020531
 30
0.0
 10
44.73646936313274
 20
-81.36938403052386
 30
0.0
 10
44.37310612394754
 20
-80.15885562963575
 30
0.0
 10
44.21980815059779
 20
-79.64814752215828
 30
0.0
 10
43.40804874166403
 20
-79.03424144446161
 30
0.0
 10
42.88170281339833
 20
-79.02101561492832
 30
0.0
 10
42.34985073132462
 20
-79.00765559475367
 30
0.0
 10
41.4662431225234
 20
-79.57704795316236
 30
0.0
 10
41.3155949689306
 20
-80.06874393068536
 30
0.0
 10
40.55085913266888
 20
-82.56475962427933
 30
0.0
 10
40.44640581257253
 20
-85.14478402649023
 30
0.0
 10
41.31613136969062
 20
-87.6317445356587
 30
0.0
 10
41.49875169061517
 20
-88.15393936196875
 30
0.0
 10
42.44980364903991
 20
-88.69209750688071
 30
0.0
 10
43.04778589887433
 20
-88.69325691401473
 30
0.0
 10
43.52313888884233
 20
-88.69418014562174
 30
0.0
 10
44.25561826536944
 20
-87.9654068796042
 30
0.0
 10
44.42252740801808
 20
-87.42181669756286
 30
0.0
 10
44.75948900177094
 20
-86.32436269803888
 30
0.0
 10
44.78953280836728
 20
-85.13255657532224
 30
0.0
 10
44.95505803705323
 20
-83.91419144102566
 30
0.0
  0
SPLINE
  5
5D
330
55
100
AcDbEntity
  8
Layer 1
 62
   179
420
  2301728
370
    35
100
AcDbSpline
210
0.0
220
0.0
230
1.0
 70
    11
 71
     3
 72
    38
 73
    34
 74
     0
 42
0.0000000001
 43
0.0000000001
 12
1.0
 22
0.0
 32
0.0
 13
1.0
 23
0.0
 33
0.0
 40
0.0
 40
0.0
 40
0.0
 40
0.0
 40
1.0
 40
1.0
 40
1.0
 40
2.0
 40
2.0
 40
2.0
 40
3.0
 40
3.0
 40
3.0
 40
4.0
 40
4.0
 40
4.0
 40
5.0
 40
5.0
 40
5.0
 40
6.0
 40
6.0
 40
6.0
 40
7.0
 40
7.0
 40
7.0
 40
8.0
 40
8.0
 40
8.0
 40
9.0
 40
9.0
 40
9.0
 40
10.0
 40
10.0
 40
10.0
 40
11.0
 40
11.0
 40
11.0
 40
11.0
 10
30.33137598122803
 20
-81.5105311138931
 30
0.0
 10
29.5913749250365
 20
-81.92530901624588
 30
0.0
 10
29.0247935757226
 20
-82.4545944760033
 30
0.0
 10
28.39991753275803
 20
-82.5360428271988
 30
0.0
 10
27.71864699583564
 20
-82.62485556074877
 30
0.0
 10
26.98333274128815
 20
-82.29850392290106
 30
0.0
 10
26.27157586714164
 20
-82.15312715054101
 30
0.0
 10
26.56617789283564
 20
-81.5444223020731
 30
0.0
 10
26.72345864183223
 20
-80.79133905961174
 30
0.0
 10
27.18181577370232
 20
-80.35481153823653
 30
0.0
 10
28.42440690947973
 20
-79.17139501436766
 30
0.0
 10
29.7746737929225
 20
-78.0966353359754
 30
0.0
 10
31.12758245011015
 20
-77.03673861293214
 30
0.0
 10
31.49640356703353
 20
-76.74779395804724
 30
0.0
 10
32.11745239057259
 20
-76.41873703688597
 30
0.0
 10
32.45832970987666
 20
-76.546690496475
 30
0.0
 10
32.90230057334962
 20
-76.71333916917645
 30
0.0
 10
33.47862161947213
 20
-77.31141611891194
 30
0.0
 10
33.48692778524866
 20
-77.73390193165886
 30
0.0
 10
33.56608712748264
 20
-81.7599217355654
 30
0.0
 10
33.59284145641561
 20
-85.78981159754586
 30
0.0
 10
33.46766831594289
 20
-89.81338376416876
 30
0.0
 10
33.45221326903049
 20
-90.31015751553065
 30
0.0
 10
32.52394359190591
 20
-91.06120642788127
 30
0.0
 10
31.90925245838133
 20
-91.19644912306582
 30
0.0
 10
30.71148833416118
 20
-91.45997807062761
 30
0.0
 10
30.46799054992401
 20
-90.36701140612375
 30
0.0
 10
30.43522853247296
 20
-89.50673131235556
 30
0.0
 10
30.35308814301273
 20
-87.3498261027143
 30
0.0
 10
30.40607515113873
 20
-85.1878753249879
 30
0.0
 10
30.39709312040371
 20
-83.02797498024943
 30
0.0
 10
30.39524119677812
 20
-82.58267675860728
 30
0.0
 10
30.3596201632737
 20
-82.13751809523092
 30
0.0
 10
30.33137598122803
 20
-81.5105311138931
 30
0.0
  0
SPLINE
  5
5E
330
55
100
AcDbEntity
  8
Layer 1
 62
   179
420
  2301728
370
    35
100
AcDbSpline
210
0.0
220
0.0
230
1.0
 70
    11
 71
     3
 72
    26
 73
    22
 74
     0
 42
0.0000000001
 43
0.0000000001
 12
1.0
 22
0.0
 32
0.0
 13
1.0
 23
0.0
 33
0.0
 40
0.0
 40
0.0
 40
0.0
 40
0.0
 40
1.0
 40
1.0
 40
1.0
 40
2.0
 40
2.0
 40
2.0
 40
3.0
 40
3.0
 40
3.0
 40
4.0
 40
4.0
 40
4.0
 40
5.0
 40
5.0
 40
5.0
 40
6.0
 40
6.0
 40
6.0
 40
7.0
 40
7.0
 40
7.0
 40
7.0
 10
44.95505803705323
 20
-83.91419144102566
 30
0.0
 10
44.78953280836728
 20
-85.13255657532224
 30
0.0
 10
44.75948900177094
 20
-86.32436269803888
 30
0.0
 10
44.42252740801808
 20
-87.42181669756286
 30
0.0
 10
44.25561826536944
 20
-87.9654068796042
 30
0.0
 10
43.52313888884233
 20
-88.69418014562174
 30
0.0
 10
43.04778589887433
 20
-88.69325691401473
 30
0.0
 10
42.44980364903991
 20
-88.69209750688071
 30
0.0
 10
41.49875169061517
 20
-88.15393936196875
 30
0.0
 10
41.31613136969062
 20
-87.6317445356587
 30
0.0
 10
40.44640581257253
 20
-85.14478402649023
 30
0.0
 10
40.55085913266888
 20
-82.56475962427933
 30
0.0
 10
41.3155949689306
 20
-80.06874393068536
 30
0.0
 10
41.4662431225234
 20
-79.57704795316236
 30
0.0
 10
42.34985073132462
 20
-79.00765559475367
 30
0.0
 10
42.88170281339833
 20
-79.02101561492832
 30
0.0
 10
43.40804874166403
 20
-79.03424144446161
 30
0.0
 10
44.21980815059779
 20
-79.64814752215828
 30
0.0
 10
44.37310612394754
 20
-80.15885562963575
 30
0.0
 10
44.73646936313274
 20
-81.36938403052386
 30
0.0
 10
44.78381745826348
 20
-82.6749033020531
 30
0.0
 10
44.95505803705323
 20
-83.91419144102566
 30
0.0
  0
ENDBLK
  5
58
330
55
100
AcDbEntity
  8
0
100
AcDbBlockEnd
  0
ENDSEC
  0
SECTION
  2
ENTITIES
  0
MTEXT
  5
41
330
1F
100
AcDbEntity
  8
Layer 1
 62
   179
420
  2301728
100
AcDbMText
 10
-114.7678654701687
 20
-34.71440238084777
 30
0.0
 40
14.9859999962535
 41
0.0
 46
0.0
 71
     7
 72
     1
  1
\fArial Rounded MT|b1|i0|c0|p34;\W1;1   2   3   
 73
     1
 44
1.0
  0
MTEXT
  5
42
330
1F
100
AcDbEntity
  8
Layer 1
 62
   179
420
  2301728
100
AcDbMText
 10
-114.7678654701687
 20
-60.11440237449777
 30
0.0
 40
14.9859999962535
 41
0.0
 46
0.0
 71
     7
 72
     1
  1
\fArial Rounded MT|b1|i0|c0|p34;\W1;4   5   6   
 73
     1
 44
1.0
  0
MTEXT
  5
43
330
1F
100
AcDbEntity
  8
Layer 1
 62
   179
420
  2301728
100
AcDbMText
 10
-114.7678654701687
 20
-85.51440236814777
 30
0.0
 40
14.9859999962535
 41
0.0
 46
0.0
 71
     7
 72
     1
  1
\fArial Rounded MT|b1|i0|c0|p34;\W1;7   8   9   
 73
     1
 44
1.0
  0
MTEXT
  5
44
330
1F
100
AcDbEntity
  8
Layer 1
 62
   179
420
  2301728
100
AcDbMText
 10
-114.7678654701687
 20
-110.9144023617978
 30
0.0
 40
14.9859999962535
 41
0.0
 46
0.0
 71
     7
 72
     1
  1
\fArial Rounded MT|b1|i0|c0|p34;\W1;10   0
 73
     1
 44
1.0
  0
SPLINE
  5
45
330
1F
100
AcDbEntity
  8
Layer 1
 62
   179
420
  2301728
370
    35
100
AcDbSpline
210
0.0
220
0.0
230
1.0
 70
    11
 71
     3
 72
    23
 73
    19
 74
     0
 42
0.0000000001
 43
0.0000000001
 12
1.0
 22
0.0
 32
0.0
 13
1.0
 23
0.0
 33
0.0
 40
0.0
 40
0.0
 40
0.0
 40
0.0
 40
1.0
 40
1.0
 40
1.0
 40
2.0
 40
2.0
 40
2.0
 40
3.0
 40
3.0
 40
3.0
 40
4.0
 40
4.0
 40
4.0
 40
5.0
 40
5.0
 40
5.0
 40
6.0
 40
6.0
 40
6.0
 40
6.0
 10
163.6586442809939
 20
-55.51802104049074
 30
0.0
 10
161.8879290484288
 20
-53.48551055465115
 30
0.0
 10
161.8088018902405
 20
-51.55037953285457
 30
0.0
 10
163.3629909098079
 20
-50.01529764870249
 30
0.0
 10
165.0988508209542
 20
-48.3007760399902
 30
0.0
 10
168.5955830107092
 20
-48.21373462289596
 30
0.0
 10
170.4704431329334
 20
-49.8383646053083
 30
0.0
 10
172.1879554560654
 20
-51.32666226453465
 30
0.0
 10
172.1626427041759
 20
-53.09638990277356
 30
0.0
 10
170.3891945097367
 20
-55.51759163044065
 30
0.0
 10
172.6328837948958
 20
-57.77523643776537
 30
0.0
 10
172.8776756459685
 20
-60.45354206512464
 30
0.0
 10
171.0072891060868
 20
-62.28031682847973
 30
0.0
 10
169.0569252128125
 20
-64.18520127989342
 30
0.0
 10
164.8533536028828
 20
-64.15557735408306
 30
0.0
 10
162.9606742473942
 20
-62.22361323140323
 30
0.0
 10
161.1969054046786
 20
-60.42324181848573
 30
0.0
 10
161.4625498353155
 20
-57.64473872363084
 30
0.0
 10
163.6586442809939
 20
-55.51802104049074
 30
0.0
  0
SPLINE
  5
46
330
1F
100
AcDbEntity
  8
Layer 1
 62
   179
420
  2301728
370
    35
100
AcDbSpline
210
0.0
220
0.0
230
1.0
 70
    11
 71
     3
 72
    17
 73
    13
 74
     0
 42
0.0000000001
 43
0.0000000001
 12
1.0
 22
0.0
 32
0.0
 13
1.0
 23
0.0
 33
0.0
 40
0.0
 40
0.0
 40
0.0
 40
0.0
 40
1.0
 40
1.0
 40
1.0
 40
2.0
 40
2.0
 40
2.0
 40
3.0
 40
3.0
 40
3.0
 40
4.0
 40
4.0
 40
4.0
 40
4.0
 10
169.1385117684877
 20
-58.89049485147952
 30
0.0
 10
169.1116810024456
 20
-57.58885100564996
 30
0.0
 10
168.3264761131625
 20
-56.86888601327883
 30
0.0
 10
166.9819929709207
 20
-56.79531196887127
 30
0.0
 10
165.7742196085098
 20
-56.7292096593302
 30
0.0
 10
164.7816636412383
 20
-57.81136055820493
 30
0.0
 10
164.87254334009
 20
-59.07160927523359
 30
0.0
 10
164.9684169300226
 20
-60.40111646566924
 30
0.0
 10
165.6929361192632
 20
-61.32298469583039
 30
0.0
 10
167.0645557759801
 20
-61.29529848286955
 30
0.0
 10
168.4178519827183
 20
-61.26799337132786
 30
0.0
 10
169.1337807137795
 20
-60.40454101081655
 30
0.0
 10
169.1385117684877
 20
-58.89049485147952
 30
0.0
  0
SPLINE
  5
47
330
1F
100
AcDbEntity
  8
Layer 1
 62
   179
420
  2301728
370
    35
100
AcDbSpline
210
0.0
220
0.0
230
1.0
 70
    11
 71
     3
 72
    20
 73
    16
 74
     0
 42
0.0000000001
 43
0.0000000001
 12
1.0
 22
0.0
 32
0.0
 13
1.0
 23
0.0
 33
0.0
 40
0.0
 40
0.0
 40
0.0
 40
0.0
 40
1.0
 40
1.0
 40
1.0
 40
2.0
 40
2.0
 40
2.0
 40
3.0
 40
3.0
 40
3.0
 40
4.0
 40
4.0
 40
4.0
 40
5.0
 40
5.0
 40
5.0
 40
5.0
 10
166.6147998303057
 20
-54.69482587214794
 30
0.0
 10
166.8938247779132
 20
-54.68906640985477
 30
0.0
 10
167.1728443615147
 20
-54.68330694756224
 30
0.0
 10
167.4518639451162
 20
-54.67755285289481
 30
0.0
 10
167.9041248823432
 20
-54.02371700819275
 30
0.0
 10
168.6651863733952
 20
-53.40133544963917
 30
0.0
 10
168.7356426132898
 20
-52.70861115730224
 30
0.0
 10
168.8391250480092
 20
-51.69126897019387
 30
0.0
 10
168.0898214616277
 20
-51.03830804846854
 30
0.0
 10
166.9502595019287
 20
-51.05262887362902
 30
0.0
 10
165.797528903558
 20
-51.06712146280966
 30
0.0
 10
165.0950638315845
 20
-51.76550860017853
 30
0.0
 10
165.2454840148544
 20
-52.77431626254696
 30
0.0
 10
165.3488001653394
 20
-53.46720695127831
 30
0.0
 10
166.1342544809753
 20
-54.05825231144821
 30
0.0
 10
166.6147998303057
 20
-54.69482587214794
 30
0.0
  0
SPLINE
  5
48
330
1F
100
AcDbEntity
  8
Layer 1
 62
   179
420
  2301728
370
    35
100
AcDbSpline
210
0.0
220
0.0
230
1.0
 70
    11
 71
     3
 72
    41
 73
    37
 74
     0
 42
0.0000000001
 43
0.0000000001
 12
1.0
 22
0.0
 32
0.0
 13
1.0
 23
0.0
 33
0.0
 40
0.0
 40
0.0
 40
0.0
 40
0.0
 40
1.0
 40
1.0
 40
1.0
 40
2.0
 40
2.0
 40
2.0
 40
3.0
 40
3.0
 40
3.0
 40
4.0
 40
4.0
 40
4.0
 40
5.0
 40
5.0
 40
5.0
 40
6.0
 40
6.0
 40
6.0
 40
7.0
 40
7.0
 40
7.0
 40
8.0
 40
8.0
 40
8.0
 40
9.0
 40
9.0
 40
9.0
 40
10.0
 40
10.0
 40
10.0
 40
11.0
 40
11.0
 40
11.0
 40
12.0
 40
12.0
 40
12.0
 40
12.0
 10
190.0513820773987
 20
-58.34785964208818
 30
0.0
 10
188.3947405125706
 20
-58.27094693454371
 30
0.0
 10
186.7257027261664
 20
-58.53786822149907
 30
0.0
 10
185.3198070608521
 20
-58.0482280445891
 30
0.0
 10
183.1600001266238
 20
-57.29603046035528
 30
0.0
 10
182.2755342766056
 20
-54.44875734602525
 30
0.0
 10
183.077260309313
 20
-52.07354543469184
 30
0.0
 10
183.8799625914047
 20
-49.69542963789605
 30
0.0
 10
186.2742571180952
 20
-48.29072738011435
 30
0.0
 10
188.755416383946
 20
-48.74224131222777
 30
0.0
 10
191.298122273058
 20
-49.20495211138947
 30
0.0
 10
192.6030351311958
 20
-50.66268651032127
 30
0.0
 10
193.2148592026562
 20
-53.89023442950236
 30
0.0
 10
193.684891097079
 20
-56.36977688006035
 30
0.0
 10
193.4424164972918
 20
-58.81093007216676
 30
0.0
 10
192.2331599867782
 20
-61.04525254616087
 30
0.0
 10
190.5167043731446
 20
-64.21671414521226
 30
0.0
 10
185.6163454932923
 20
-64.65691849013898
 30
0.0
 10
183.872935741441
 20
-61.80026276622093
 30
0.0
 10
183.5350139903281
 20
-61.24656534513274
 30
0.0
 10
183.5514063975697
 20
-60.3801661581545
 30
0.0
 10
183.6631601320169
 20
-59.70061938672059
 30
0.0
 10
183.7016629786069
 20
-59.46651039519589
 30
0.0
 10
184.5202534512245
 20
-59.27328124041159
 30
0.0
 10
184.9971727314125
 20
-59.23226184540412
 30
0.0
 10
185.277029100201
 20
-59.20818804448731
 30
0.0
 10
185.7068631216298
 20
-59.44616172646086
 30
0.0
 10
185.8599465346753
 20
-59.69512293808307
 30
0.0
 10
186.4282041363649
 20
-60.6193046148878
 30
0.0
 10
187.098415430608
 20
-61.80962927293239
 30
0.0
 10
188.226782706435
 20
-61.15475747648555
 30
0.0
 10
189.0754330776731
 20
-60.66222951699105
 30
0.0
 10
189.4718117836686
 20
-59.38028485719598
 30
0.0
 10
190.0462487221205
 20
-58.43559348288816
 30
0.0
 10
190.1151279437795
 20
-58.32232584700158
 30
0.0
 10
190.0380364264769
 20
-58.12017569843309
 30
0.0
 10
190.0513820773987
 20
-58.34785964208818
 30
0.0
  0
SPLINE
  5
49
330
1F
100
AcDbEntity
  8
Layer 1
 62
   179
420
  2301728
370
    35
100
AcDbSpline
210
0.0
220
0.0
230
1.0
 70
    11
 71
     3
 72
    17
 73
    13
 74
     0
 42
0.0000000001
 43
0.0000000001
 12
1.0
 22
0.0
 32
0.0
 13
1.0
 23
0.0
 33
0.0
 40
0.0
 40
0.0
 40
0.0
 40
0.0
 40
1.0
 40
1.0
 40
1.0
 40
2.0
 40
2.0
 40
2.0
 40
3.0
 40
3.0
 40
3.0
 40
4.0
 40
4.0
 40
4.0
 40
4.0
 10
189.8959063169606
 20
-53.79686994942417
 30
0.0
 10
189.9584238256001
 20
-52.27983939024138
 30
0.0
 10
189.3101459584552
 20
-51.32835260189496
 30
0.0
 10
187.8725543722018
 20
-51.1410385705468
 30
0.0
 10
186.7985137653995
 20
-51.00108846769106
 30
0.0
 10
185.8125394354603
 20
-52.33398799752092
 30
0.0
 10
185.8119976706918
 20
-53.74023613148152
 30
0.0
 10
185.8114505419161
 20
-55.15387548592459
 30
0.0
 10
186.7974195078481
 20
-56.44948612055451
 30
0.0
 10
187.9141522511801
 20
-56.30147921163984
 30
0.0
 10
189.3452748442612
 20
-56.11181416026864
 30
0.0
 10
190.0560755840527
 20
-55.21011746719727
 30
0.0
 10
189.8959063169606
 20
-53.79686994942417
 30
0.0
  0
SPLINE
  5
4A
330
1F
100
AcDbEntity
  8
Layer 1
 62
   179
420
  2301728
370
    35
100
AcDbSpline
210
0.0
220
0.0
230
1.0
 70
    11
 71
     3
 72
    32
 73
    28
 74
     0
 42
0.0000000001
 43
0.0000000001
 12
1.0
 22
0.0
 32
0.0
 13
1.0
 23
0.0
 33
0.0
 40
0.0
 40
0.0
 40
0.0
 40
0.0
 40
1.0
 40
1.0
 40
1.0
 40
2.0
 40
2.0
 40
2.0
 40
3.0
 40
3.0
 40
3.0
 40
4.0
 40
4.0
 40
4.0
 40
5.0
 40
5.0
 40
5.0
 40
6.0
 40
6.0
 40
6.0
 40
7.0
 40
7.0
 40
7.0
 40
8.0
 40
8.0
 40
8.0
 40
9.0
 40
9.0
 40
9.0
 40
9.0
 10
123.5785390832349
 20
-55.15939084019076
 30
0.0
 10
127.275584772999
 20
-53.84456142201928
 30
0.0
 10
129.7555532291613
 20
-54.90222521280429
 30
0.0
 10
130.5492600704981
 20
-58.13228249696396
 30
0.0
 10
131.1611806940943
 20
-60.62253336063904
 30
0.0
 10
129.9362612813733
 20
-63.13589722024446
 30
0.0
 10
127.6710247776645
 20
-64.03803405861737
 30
0.0
 10
125.2140142740531
 20
-65.01653610672116
 30
0.0
 10
122.365506311366
 20
-64.25466606111567
 30
0.0
 10
121.2523835451523
 20
-61.99078407281804
 30
0.0
 10
119.5509739728518
 20
-58.53044223038923
 30
0.0
 10
119.5635579346937
 20
-54.92038120647243
 30
0.0
 10
121.5921129668292
 20
-51.59942049858284
 30
0.0
 10
123.2502993658485
 20
-48.88480020007476
 30
0.0
 10
127.7172196111596
 20
-48.65654192047808
 30
0.0
 10
129.4352307870001
 20
-51.08756371922154
 30
0.0
 10
129.8596471607478
 20
-51.68812587962013
 30
0.0
 10
130.1006412944351
 20
-52.84905205213055
 30
0.0
 10
129.8023702875392
 20
-53.43395148096238
 30
0.0
 10
129.3003796358046
 20
-54.41833913056176
 30
0.0
 10
128.2904335558773
 20
-54.14835561318851
 30
0.0
 10
127.6683320458462
 20
-53.33966108546527
 30
0.0
 10
126.9941138379232
 20
-52.46321370332129
 30
0.0
 10
126.5544207705153
 20
-51.30776519275866
 30
0.0
 10
125.0919294609582
 20
-51.96247596043744
 30
0.0
 10
123.9763767992989
 20
-52.46187448072884
 30
0.0
 10
123.5158445623454
 20
-53.42844429707404
 30
0.0
 10
123.5785390832349
 20
-55.15939084019076
 30
0.0
  0
SPLINE
  5
4B
330
1F
100
AcDbEntity
  8
Layer 1
 62
   179
420
  2301728
370
    35
100
AcDbSpline
210
0.0
220
0.0
230
1.0
 70
    11
 71
     3
 72
    17
 73
    13
 74
     0
 42
0.0000000001
 43
0.0000000001
 12
1.0
 22
0.0
 32
0.0
 13
1.0
 23
0.0
 33
0.0
 40
0.0
 40
0.0
 40
0.0
 40
0.0
 40
1.0
 40
1.0
 40
1.0
 40
2.0
 40
2.0
 40
2.0
 40
3.0
 40
3.0
 40
3.0
 40
4.0
 40
4.0
 40
4.0
 40
4.0
 10
127.6624852775566
 20
-59.80478633230283
 30
0.0
 10
127.6684071419519
 20
-57.8856884082407
 30
0.0
 10
126.8219613778406
 20
-56.78250178455158
 30
0.0
 10
125.6554184598867
 20
-56.78525537649607
 30
0.0
 10
124.4950924267466
 20
-56.78799018175081
 30
0.0
 10
123.4447714615752
 20
-58.00194044397241
 30
0.0
 10
123.4713983953275
 20
-59.30951014848957
 30
0.0
 10
123.5004766805553
 20
-60.73734150507816
 30
0.0
 10
124.6015894337413
 20
-62.04199658888212
 30
0.0
 10
125.771694052745
 20
-61.91018917409635
 30
0.0
 10
127.2255439460499
 20
-61.74641754872797
 30
0.0
 10
127.6253985289737
 20
-60.68767486519362
 30
0.0
 10
127.6624852775566
 20
-59.80478633230283
 30
0.0
  0
SPLINE
  5
4C
330
1F
100
AcDbEntity
  8
Layer 1
 62
   179
420
  2301728
370
    35
100
AcDbSpline
210
0.0
220
0.0
230
1.0
 70
    11
 71
     3
 72
    26
 73
    22
 74
     0
 42
0.0000000001
 43
0.0000000001
 12
1.0
 22
0.0
 32
0.0
 13
1.0
 23
0.0
 33
0.0
 40
0.0
 40
0.0
 40
0.0
 40
0.0
 40
1.0
 40
1.0
 40
1.0
 40
2.0
 40
2.0
 40
2.0
 40
3.0
 40
3.0
 40
3.0
 40
4.0
 40
4.0
 40
4.0
 40
5.0
 40
5.0
 40
5.0
 40
6.0
 40
6.0
 40
6.0
 40
7.0
 40
7.0
 40
7.0
 40
7.0
 10
99.21761160969237
 20
-84.0509673301387
 30
0.0
 10
98.93278816986135
 20
-85.43471974511576
 30
0.0
 10
98.79620444421025
 20
-86.85211643749436
 30
0.0
 10
98.33727604552956
 20
-88.15588049544442
 30
0.0
 10
97.60072806923415
 20
-90.24829905085736
 30
0.0
 10
95.89012995190457
 20
-91.30968260619844
 30
0.0
 10
93.76311319616602
 20
-91.30107293469955
 30
0.0
 10
91.56007772464676
 20
-91.29215194091536
 30
0.0
 10
90.06603532235627
 20
-90.14089286215089
 30
0.0
 10
89.31047730310675
 20
-88.19944414499673
 30
0.0
 10
88.16470382260111
 20
-85.25531222630929
 30
0.0
 10
88.29858945242671
 20
-82.21552921902871
 30
0.0
 10
89.34157781920284
 20
-79.2715046528533
 30
0.0
 10
90.03291793940166
 20
-77.32007751966725
 30
0.0
 10
91.73872063393166
 20
-76.3717791009405
 30
0.0
 10
93.91600350493856
 20
-76.41428532824511
 30
0.0
 10
95.94115239224502
 20
-76.45382325858051
 30
0.0
 10
97.66646934644346
 20
-77.56684337241002
 30
0.0
 10
98.31450583324556
 20
-79.5583129927405
 30
0.0
 10
98.7790825319344
 20
-80.98597795293465
 30
0.0
 10
98.92209770270493
 20
-82.51841359765493
 30
0.0
 10
99.21761160969237
 20
-84.0509673301387
 30
0.0
  0
SPLINE
  5
4D
330
1F
100
AcDbEntity
  8
Layer 1
 62
   179
420
  2301728
370
    35
100
AcDbSpline
210
0.0
220
0.0
230
1.0
 70
    11
 71
     3
 72
    26
 73
    22
 74
     0
 42
0.0000000001
 43
0.0000000001
 12
1.0
 22
0.0
 32
0.0
 13
1.0
 23
0.0
 33
0.0
 40
0.0
 40
0.0
 40
0.0
 40
0.0
 40
1.0
 40
1.0
 40
1.0
 40
2.0
 40
2.0
 40
2.0
 40
3.0
 40
3.0
 40
3.0
 40
4.0
 40
4.0
 40
4.0
 40
5.0
 40
5.0
 40
5.0
 40
6.0
 40
6.0
 40
6.0
 40
7.0
 40
7.0
 40
7.0
 40
7.0
 10
91.61543428313384
 20
-83.86211279023674
 30
0.0
 10
91.75728010024594
 20
-84.92718927200585
 30
0.0
 10
91.774160632179
 20
-86.12587669077085
 30
0.0
 10
92.11933988558272
 20
-87.22092599401576
 30
0.0
 10
92.30906483457967
 20
-87.82277638456397
 30
0.0
 10
93.06373779257491
 20
-88.66742595251978
 30
0.0
 10
93.54192297855714
 20
-88.65351306690647
 30
0.0
 10
94.18039007579267
 20
-88.6349518175037
 30
0.0
 10
95.3020201580673
 20
-87.92771346548386
 30
0.0
 10
95.33909081462728
 20
-87.44833082113863
 30
0.0
 10
95.52520578650595
 20
-85.04155190351896
 30
0.0
 10
95.51458505144684
 20
-82.60647486361741
 30
0.0
 10
95.34842955186801
 20
-80.19686183966922
 30
0.0
 10
95.3163849704347
 20
-79.73215965140133
 30
0.0
 10
94.27973149664088
 20
-79.00286572569887
 30
0.0
 10
93.71010070900427
 20
-79.00623122696442
 30
0.0
 10
93.17522332664211
 20
-79.00937665557888
 30
0.0
 10
92.36563365878526
 20
-79.72591173517696
 30
0.0
 10
92.1728458614457
 20
-80.29637225108482
 30
0.0
 10
91.8057385449509
 20
-81.3826562216885
 30
0.0
 10
91.7921086016262
 20
-82.58855772928945
 30
0.0
 10
91.61543428313384
 20
-83.86211279023674
 30
0.0
  0
SPLINE
  5
4E
330
1F
100
AcDbEntity
  8
Layer 1
 62
   179
420
  2301728
370
    35
100
AcDbSpline
210
0.0
220
0.0
230
1.0
 70
    11
 71
     3
 72
    62
 73
    58
 74
     0
 42
0.0000000001
 43
0.0000000001
 12
1.0
 22
0.0
 32
0.0
 13
1.0
 23
0.0
 33
0.0
 40
0.0
 40
0.0
 40
0.0
 40
0.0
 40
1.0
 40
1.0
 40
1.0
 40
2.0
 40
2.0
 40
2.0
 40
3.0
 40
3.0
 40
3.0
 40
4.0
 40
4.0
 40
4.0
 40
5.0
 40
5.0
 40
5.0
 40
6.0
 40
6.0
 40
6.0
 40
7.0
 40
7.0
 40
7.0
 40
8.0
 40
8.0
 40
8.0
 40
9.0
 40
9.0
 40
9.0
 40
10.0
 40
10.0
 40
10.0
 40
11.0
 40
11.0
 40
11.0
 40
12.0
 40
12.0
 40
12.0
 40
13.0
 40
13.0
 40
13.0
 40
14.0
 40
14.0
 40
14.0
 40
15.0
 40
15.0
 40
15.0
 40
16.0
 40
16.0
 40
16.0
 40
17.0
 40
17.0
 40
17.0
 40
18.0
 40
18.0
 40
18.0
 40
19.0
 40
19.0
 40
19.0
 40
19.0
 10
102.9693027661141
 20
-52.34212435001927
 30
0.0
 10
102.8474030112819
 20
-53.10257465864828
 30
0.0
 10
102.7476190598053
 20
-53.72506625352773
 30
0.0
 10
102.6327193348983
 20
-54.44186166296893
 30
0.0
 10
102.9283056559872
 20
-54.44186166296893
 30
0.0
 10
103.2065662325118
 20
-54.48240065548219
 30
0.0
 10
103.4693436010846
 20
-54.43569962875368
 30
0.0
 10
106.7156195477358
 20
-53.85879796209902
 30
0.0
 10
109.1632376740307
 20
-55.58742837475961
 30
0.0
 10
109.4688841913845
 20
-58.68529177508925
 30
0.0
 10
109.754844800827
 20
-61.5836485824684
 30
0.0
 10
107.4371322107151
 20
-64.17256177271038
 30
0.0
 10
104.437074941158
 20
-64.30587749029623
 30
0.0
 10
101.7605853383647
 20
-64.42481870646493
 30
0.0
 10
99.78027955463708
 20
-63.38527065215604
 30
0.0
 10
99.24480944943365
 20
-61.36404291537516
 30
0.0
 10
99.09766935681483
 20
-60.80864395696381
 30
0.0
 10
99.5862982656048
 20
-60.08459420149402
 30
0.0
 10
99.78319757477402
 20
-59.43793487224907
 30
0.0
 10
100.3941660870204
 20
-59.64312846454699
 30
0.0
 10
101.0126763939603
 20
-59.82950852903667
 30
0.0
 10
101.6097869925578
 20
-60.06925889509104
 30
0.0
 10
101.7303135614442
 20
-60.11765340770314
 30
0.0
 10
101.7532098279068
 20
-60.37920170141022
 30
0.0
 10
101.8492202000324
 20
-60.52378943280395
 30
0.0
 10
102.7745812440332
 20
-61.91733239691619
 30
0.0
 10
104.1610216537633
 20
-62.37038683758213
 30
0.0
 10
105.2510952792973
 20
-61.64218790750683
 30
0.0
 10
106.3313742269436
 20
-60.92053748069038
 30
0.0
 10
106.6786722633514
 20
-58.86891288000872
 30
0.0
 10
105.9254851354645
 20
-57.6583254352395
 30
0.0
 10
105.1707048973177
 20
-56.44518568448651
 30
0.0
 10
103.9249355870342
 20
-56.35542556501407
 30
0.0
 10
102.3998114426747
 20
-57.19175799706785
 30
0.0
 10
101.7045877809691
 20
-57.57299629071795
 30
0.0
 10
100.8251640981003
 20
-57.61787500854791
 30
0.0
 10
100.0292875156867
 20
-57.8153123818201
 30
0.0
 10
99.88769380693174
 20
-56.96957586967538
 30
0.0
 10
99.5793786957939
 20
-56.11125495925898
 30
0.0
 10
99.64197934655058
 20
-55.28093426790256
 30
0.0
 10
99.74661772490973
 20
-53.89298705350225
 30
0.0
 10
100.1016372502655
 20
-52.52511207511667
 30
0.0
 10
100.3258313121341
 20
-51.1446526984594
 30
0.0
 10
100.5071535432174
 20
-50.02819193660476
 30
0.0
 10
101.1720571519339
 20
-49.5420917087937
 30
0.0
 10
102.2646920910992
 20
-49.54495802087596
 30
0.0
 10
103.9043431618385
 20
-49.54926017281318
 30
0.0
 10
105.5440290986264
 20
-49.54320280729743
 30
0.0
 10
107.1836882153758
 20
-49.54570412083772
 30
0.0
 10
108.1468386929552
 20
-49.54717485025832
 30
0.0
 10
109.0342064710876
 20
-49.7955402554373
 30
0.0
 10
109.0129757289863
 20
-50.93824870658464
 30
0.0
 10
108.9930538047394
 20
-52.01067615164293
 30
0.0
 10
108.2336068799772
 20
-52.38423605684137
 30
0.0
 10
107.1969480421762
 20
-52.35267710199339
 30
0.0
 10
105.8005627623455
 20
-52.31016550706369
 30
0.0
 10
104.4019138713063
 20
-52.34212435001927
 30
0.0
 10
102.9693027661141
 20
-52.34212435001927
 30
0.0
  0
SPLINE
  5
4F
330
1F
100
AcDbEntity
  8
Layer 1
 62
   179
420
  2301728
370
    35
100
AcDbSpline
210
0.0
220
0.0
230
1.0
 70
    11
 71
     3
 72
    59
 73
    55
 74
     0
 42
0.0000000001
 43
0.0000000001
 12
1.0
 22
0.0
 32
0.0
 13
1.0
 23
0.0
 33
0.0
 40
0.0
 40
0.0
 40
0.0
 40
0.0
 40
1.0
 40
1.0
 40
1.0
 40
2.0
 40
2.0
 40
2.0
 40
3.0
 40
3.0
 40
3.0
 40
4.0
 40
4.0
 40
4.0
 40
5.0
 40
5.0
 40
5.0
 40
6.0
 40
6.0
 40
6.0
 40
7.0
 40
7.0
 40
7.0
 40
8.0
 40
8.0
 40
8.0
 40
9.0
 40
9.0
 40
9.0
 40
10.0
 40
10.0
 40
10.0
 40
11.0
 40
11.0
 40
11.0
 40
12.0
 40
12.0
 40
12.0
 40
13.0
 40
13.0
 40
13.0
 40
14.0
 40
14.0
 40
14.0
 40
15.0
 40
15.0
 40
15.0
 40
16.0
 40
16.0
 40
16.0
 40
17.0
 40
17.0
 40
17.0
 40
18.0
 40
18.0
 40
18.0
 40
18.0
 10
36.45357367185148
 20
-61.49905439322557
 30
0.0
 10
37.84257807721704
 20
-61.49905439322557
 30
0.0
 10
39.25042624129974
 20
-61.36549176486062
 30
0.0
 10
40.61230486020592
 20
-61.55784868048138
 30
0.0
 10
41.25159265060434
 20
-61.64814556251595
 30
0.0
 10
41.80231531143242
 20
-62.36629092980042
 30
0.0
 10
42.39317684117029
 20
-62.79991188190135
 30
0.0
 10
41.84936302213745
 20
-63.29892393314787
 30
0.0
 10
41.33434855993672
 20
-64.18557248778673
 30
0.0
 10
40.7566556688693
 20
-64.228551066146
 30
0.0
 10
38.4890697298292
 20
-64.39724748802283
 30
0.0
 10
36.19687908790385
 20
-64.3822637610978
 30
0.0
 10
33.92485979657706
 20
-64.24825293599368
 30
0.0
 10
33.29603450301347
 20
-64.21116801056763
 30
0.0
 10
32.28822329811315
 20
-63.6067787331003
 30
0.0
 10
32.19485469973309
 20
-63.12034034487464
 30
0.0
 10
32.05460735688666
 20
-62.38963204982013
 30
0.0
 10
32.34838064340571
 20
-61.34291284767986
 30
0.0
 10
32.84679886607623
 20
-60.76902241899961
 30
0.0
 10
33.9893217579735
 20
-59.4534952094973
 30
0.0
 10
35.37693420336495
 20
-58.35288370420049
 30
0.0
 10
36.6455729600726
 20
-57.14454663647301
 30
0.0
 10
37.31847698613404
 20
-56.50362664092523
 30
0.0
 10
38.10895469489246
 20
-55.91192643042971
 30
0.0
 10
38.56141410040084
 20
-55.13239287080673
 30
0.0
 10
39.13184412517158
 20
-54.14960208983037
 30
0.0
 10
39.35698761638583
 20
-53.0162574615813
 30
0.0
 10
38.00923779351147
 20
-52.29193261529812
 30
0.0
 10
36.76802788969317
 20
-51.62486423153076
 30
0.0
 10
35.89824601049381
 20
-52.14686716522466
 30
0.0
 10
35.170427956575
 20
-53.1487492486339
 30
0.0
 10
35.10483955358277
 20
-53.23903405351074
 30
0.0
 10
35.09226095574807
 20
-53.36613674443851
 30
0.0
 10
35.04405998340746
 20
-53.47108053489042
 30
0.0
 10
34.60370982506814
 20
-54.42984045595517
 30
0.0
 10
34.1910084439296
 20
-55.67946664187713
 30
0.0
 10
32.8267884357049
 20
-55.00424751860153
 30
0.0
 10
31.49304403668802
 20
-54.34411142332537
 30
0.0
 10
31.96618973752622
 20
-53.06787120766054
 30
0.0
 10
32.45041747807646
 20
-52.07821657541928
 30
0.0
 10
33.44902136392184
 20
-50.03728562688444
 30
0.0
 10
35.26765595842755
 20
-49.44183344607848
 30
0.0
 10
37.41632721286807
 20
-49.51378244182875
 30
0.0
 10
39.37279534679758
 20
-49.57929565445729
 30
0.0
 10
40.92690390625199
 20
-50.21358126473583
 30
0.0
 10
41.74882542759358
 20
-52.15616523470918
 30
0.0
 10
42.59919764527174
 20
-54.16599213466851
 30
0.0
 10
41.92649745150147
 20
-55.85016921382978
 30
0.0
 10
40.56312227447392
 20
-57.25827723006905
 30
0.0
 10
39.23476333909238
 20
-58.63021684295729
 30
0.0
 10
37.71540282090525
 20
-59.81697471377561
 30
0.0
 10
36.27990319761752
 20
-61.0850386937111
 30
0.0
 10
36.33779156769311
 20
-61.2230430322784
 30
0.0
 10
36.3956799377687
 20
-61.36105005465826
 30
0.0
 10
36.45357367185148
 20
-61.49905439322557
 30
0.0
  0
SPLINE
  5
50
330
1F
100
AcDbEntity
  8
Layer 1
 62
   179
420
  2301728
370
    35
100
AcDbSpline
210
0.0
220
0.0
230
1.0
 70
    11
 71
     3
 72
    62
 73
    58
 74
     0
 42
0.0000000001
 43
0.0000000001
 12
1.0
 22
0.0
 32
0.0
 13
1.0
 23
0.0
 33
0.0
 40
0.0
 40
0.0
 40
0.0
 40
0.0
 40
1.0
 40
1.0
 40
1.0
 40
2.0
 40
2.0
 40
2.0
 40
3.0
 40
3.0
 40
3.0
 40
4.0
 40
4.0
 40
4.0
 40
5.0
 40
5.0
 40
5.0
 40
6.0
 40
6.0
 40
6.0
 40
7.0
 40
7.0
 40
7.0
 40
8.0
 40
8.0
 40
8.0
 40
9.0
 40
9.0
 40
9.0
 40
10.0
 40
10.0
 40
10.0
 40
11.0
 40
11.0
 40
11.0
 40
12.0
 40
12.0
 40
12.0
 40
13.0
 40
13.0
 40
13.0
 40
14.0
 40
14.0
 40
14.0
 40
15.0
 40
15.0
 40
15.0
 40
16.0
 40
16.0
 40
16.0
 40
17.0
 40
17.0
 40
17.0
 40
18.0
 40
18.0
 40
18.0
 40
19.0
 40
19.0
 40
19.0
 40
19.0
 10
61.38404609767787
 20
-55.58196273026332
 30
0.0
 10
63.06896671060089
 20
-56.91037358316616
 30
0.0
 10
63.65587496673468
 20
-58.61902032563433
 30
0.0
 10
62.8169495412844
 20
-60.68110911246717
 30
0.0
 10
62.02615535607742
 20
-62.62488201151573
 30
0.0
 10
60.11594105972729
 20
-63.69834004069436
 30
0.0
 10
57.69799662350444
 20
-63.64626065309248
 30
0.0
 10
55.55985491599311
 20
-63.60020374143814
 30
0.0
 10
53.9279575182488
 20
-62.64970191239431
 30
0.0
 10
53.16874124581241
 20
-60.66285918535036
 30
0.0
 10
52.92966742684775
 20
-60.03721411041817
 30
0.0
 10
53.17079029671793
 20
-58.79515896043647
 30
0.0
 10
53.64914713094434
 20
-58.4222002293083
 30
0.0
 10
54.51290254759851
 20
-57.74876181583361
 30
0.0
 10
55.24545970223564
 20
-58.47236605837612
 30
0.0
 10
55.66234500930667
 20
-59.3731609903434
 30
0.0
 10
55.78494476713162
 20
-59.63805868243949
 30
0.0
 10
55.90775908526084
 20
-59.90926333464169
 30
0.0
 10
56.07522876670377
 20
-60.1458521692044
 30
0.0
 10
56.78938201124794
 20
-61.15472424308032
 30
0.0
 10
57.75354092225727
 20
-61.35291040012746
 30
0.0
 10
58.85567820089476
 20
-60.90682045370581
 30
0.0
 10
59.9896776847083
 20
-60.44782941910016
 30
0.0
 10
60.17767542325548
 20
-59.50055084924229
 30
0.0
 10
59.98399183664596
 20
-58.43341856685951
 30
0.0
 10
59.7442797007757
 20
-57.11267670906507
 30
0.0
 10
58.76436669943037
 20
-56.8428636138057
 30
0.0
 10
57.62059399376169
 20
-56.87874484918562
 30
0.0
 10
56.66309181619044
 20
-56.90878476598206
 30
0.0
 10
55.48731744114854
 20
-57.01357826291608
 30
0.0
 10
55.6196314167457
 20
-55.68002925038633
 30
0.0
 10
55.66699560390058
 20
-55.20273729622168
 30
0.0
 10
56.86138844934098
 20
-54.86876631380277
 30
0.0
 10
57.49068309357023
 20
-54.41203639149096
 30
0.0
 10
58.17859024890211
 20
-53.91276535230825
 30
0.0
 10
58.97405648473433
 20
-53.44211717675675
 30
0.0
 10
59.39168738886245
 20
-52.75698539086302
 30
0.0
 10
59.53113013056758
 20
-52.52822658017741
 30
0.0
 10
58.61173386302474
 20
-51.18359476264341
 30
0.0
 10
58.24442807824854
 20
-51.21258665053733
 30
0.0
 10
57.47332516496008
 20
-51.27345149937707
 30
0.0
 10
56.57274047208868
 20
-51.7518880997061
 30
0.0
 10
56.04776504776449
 20
-52.34479065834147
 30
0.0
 10
55.41527881900981
 20
-53.05911025046412
 30
0.0
 10
54.94090207842601
 20
-54.17116687549395
 30
0.0
 10
53.94742886585459
 20
-53.29242214958423
 30
0.0
 10
53.49794112056019
 20
-52.89484346163255
 30
0.0
 10
53.43728492256051
 20
-51.54375304856827
 30
0.0
 10
53.75192688066794
 20
-50.89191127678494
 30
0.0
 10
54.64973301759959
 20
-49.03196458708295
 30
0.0
 10
57.52616063987175
 20
-48.24297998064502
 30
0.0
 10
59.79488374852456
 20
-49.00241446612461
 30
0.0
 10
61.7277019729217
 20
-49.64940658815779
 30
0.0
 10
62.67621407374651
 20
-50.99121906033355
 30
0.0
 10
62.39909334883764
 20
-53.00595733773734
 30
0.0
 10
62.28616489672482
 20
-53.82696519863897
 30
0.0
 10
61.7871029931428
 20
-54.59479062487262
 30
0.0
 10
61.38404609767787
 20
-55.58196273026332
 30
0.0
  0
SPLINE
  5
51
330
1F
100
AcDbEntity
  8
Layer 1
 62
   179
420
  2301728
370
    35
100
AcDbSpline
210
0.0
220
0.0
230
1.0
 70
    11
 71
     3
 72
    38
 73
    34
 74
     0
 42
0.0000000001
 43
0.0000000001
 12
1.0
 22
0.0
 32
0.0
 13
1.0
 23
0.0
 33
0.0
 40
0.0
 40
0.0
 40
0.0
 40
0.0
 40
1.0
 40
1.0
 40
1.0
 40
2.0
 40
2.0
 40
2.0
 40
3.0
 40
3.0
 40
3.0
 40
4.0
 40
4.0
 40
4.0
 40
5.0
 40
5.0
 40
5.0
 40
6.0
 40
6.0
 40
6.0
 40
7.0
 40
7.0
 40
7.0
 40
8.0
 40
8.0
 40
8.0
 40
9.0
 40
9.0
 40
9.0
 40
10.0
 40
10.0
 40
10.0
 40
11.0
 40
11.0
 40
11.0
 40
11.0
 10
81.91321345793004
 20
-61.22056855204247
 30
0.0
 10
80.56723241656405
 20
-61.22056855204247
 30
0.0
 10
79.16164115868119
 20
-61.34806039582831
 30
0.0
 10
77.79533321049595
 20
-61.17137963083767
 30
0.0
 10
77.01165572237787
 20
-61.07004422671096
 30
0.0
 10
76.00957193659785
 20
-60.64953906781875
 30
0.0
 10
75.63587895976698
 20
-60.04475258605571
 30
0.0
 10
75.35652144368684
 20
-59.59263747987269
 30
0.0
 10
75.73683628790712
 20
-58.4843355089652
 30
0.0
 10
76.14849436956581
 20
-57.89599543210888
 30
0.0
 10
77.85607523261709
 20
-55.45552661226992
 30
0.0
 10
79.63252727131596
 20
-53.05719365356725
 30
0.0
 10
81.50905291790086
 20
-50.74527946738694
 30
0.0
 10
82.01325488177102
 20
-50.12409757315939
 30
0.0
 10
82.98510309768196
 20
-49.47233363194818
 30
0.0
 10
83.69818219970303
 20
-49.51837980835042
 30
0.0
 10
85.11637217044915
 20
-49.60996223672143
 30
0.0
 10
84.91928243900995
 20
-50.94357834457185
 30
0.0
 10
84.92292728217818
 20
-51.97942542101377
 30
0.0
 10
84.9303269306691
 20
-54.08103335149164
 30
0.0
 10
84.92513725331094
 20
-56.18268690678789
 30
0.0
 10
85.30395419840772
 20
-58.04655196319476
 30
0.0
 10
85.86593591119922
 20
-58.66039362938331
 30
0.0
 10
86.78253484877648
 20
-59.22788584832131
 30
0.0
 10
86.87074595384408
 20
-59.90365381131677
 30
0.0
 10
86.93423971186775
 20
-60.39006804522761
 30
0.0
 10
85.89324943792435
 20
-61.02084457025534
 30
0.0
 10
85.21703045516442
 20
-61.4664487465577
 30
0.0
 10
84.59235690348632
 20
-62.36648147568667
 30
0.0
 10
85.57583428788563
 20
-64.31760802183823
 30
0.0
 10
83.56075632485772
 20
-64.3436678442355
 30
0.0
 10
81.57625856918648
 20
-64.36933582996215
 30
0.0
 10
82.289540162495
 20
-62.5156585269868
 30
0.0
 10
81.91321345793004
 20
-61.22056855204247
 30
0.0
  0
SPLINE
  5
52
330
1F
100
AcDbEntity
  8
Layer 1
 62
   179
420
  2301728
370
    35
100
AcDbSpline
210
0.0
220
0.0
230
1.0
 70
    11
 71
     3
 72
    14
 73
    10
 74
     0
 42
0.0000000001
 43
0.0000000001
 12
1.0
 22
0.0
 32
0.0
 13
1.0
 23
0.0
 33
0.0
 40
0.0
 40
0.0
 40
0.0
 40
0.0
 40
1.0
 40
1.0
 40
1.0
 40
2.0
 40
2.0
 40
2.0
 40
3.0
 40
3.0
 40
3.0
 40
3.0
 10
78.79504342290983
 20
-58.3395330725474
 30
0.0
 10
80.00449303769834
 20
-58.3395330725474
 30
0.0
 10
80.94618212084808
 20
-58.3395330725474
 30
0.0
 10
81.95290443220424
 20
-58.3395330725474
 30
0.0
 10
81.95290443220424
 20
-57.00312043174792
 30
0.0
 10
81.95290443220424
 20
-55.72771622377407
 30
0.0
 10
81.95290443220424
 20
-54.02412578464187
 30
0.0
 10
80.78230766550271
 20
-55.62381509459959
 30
0.0
 10
79.85688359441387
 20
-56.88846258082605
 30
0.0
 10
78.79504342290983
 20
-58.3395330725474
 30
0.0
  0
SPLINE
  5
53
330
1F
100
AcDbEntity
  8
Layer 1
 62
   179
420
  2301728
370
    35
100
AcDbSpline
210
0.0
220
0.0
230
1.0
 70
    11
 71
     3
 72
    38
 73
    34
 74
     0
 42
0.0000000001
 43
0.0000000001
 12
1.0
 22
0.0
 32
0.0
 13
1.0
 23
0.0
 33
0.0
 40
0.0
 40
0.0
 40
0.0
 40
0.0
 40
1.0
 40
1.0
 40
1.0
 40
2.0
 40
2.0
 40
2.0
 40
3.0
 40
3.0
 40
3.0
 40
4.0
 40
4.0
 40
4.0
 40
5.0
 40
5.0
 40
5.0
 40
6.0
 40
6.0
 40
6.0
 40
7.0
 40
7.0
 40
7.0
 40
8.0
 40
8.0
 40
8.0
 40
9.0
 40
9.0
 40
9.0
 40
10.0
 40
10.0
 40
10.0
 40
11.0
 40
11.0
 40
11.0
 40
11.0
 10
147.5364027042741
 20
-52.26496127465056
 30
0.0
 10
145.8038778648568
 20
-52.26496127465056
 30
0.0
 10
144.3631697901838
 20
-52.30324854821582
 30
0.0
 10
142.9257418061632
 20
-52.25108059479163
 30
0.0
 10
142.0139074483407
 20
-52.2179945504545
 30
0.0
 10
141.1877416559828
 20
-52.05529108258465
 30
0.0
 10
141.2356529719121
 20
-50.76278293556528
 30
0.0
 10
141.2834315286535
 20
-49.47381205382971
 30
0.0
 10
142.1577406302711
 20
-49.60017669623527
 30
0.0
 10
142.9570260395187
 20
-49.5918139355155
 30
0.0
 10
145.124420362505
 20
-49.56912498200823
 30
0.0
 10
147.2947541616582
 20
-49.52731117840936
 30
0.0
 10
149.4582287360869
 20
-49.62257043033186
 30
0.0
 10
150.0670301892619
 20
-49.64938172031663
 30
0.0
 10
150.8667178990795
 20
-49.97849231773326
 30
0.0
 10
151.1840230869625
 20
-50.44048922268759
 30
0.0
 10
151.4148282882035
 20
-50.77653479240925
 30
0.0
 10
151.1730215073634
 20
-51.69938529805979
 30
0.0
 10
150.8392059040716
 20
-52.12009442672527
 30
0.0
 10
148.4144196761492
 20
-55.17605009000673
 30
0.0
 10
146.9297844021946
 20
-58.58811013996056
 30
0.0
 10
146.5003727963651
 20
-62.48149054711043
 30
0.0
 10
146.3844083159469
 20
-63.53290642166979
 30
0.0
 10
145.8068267280373
 20
-64.4564225128968
 30
0.0
 10
144.5482092785382
 20
-64.27398765323998
 30
0.0
 10
143.3391968303703
 20
-64.09874004429048
 30
0.0
 10
143.0610824230522
 20
-62.99022336835891
 30
0.0
 10
143.3517673821923
 20
-62.11418392576274
 30
0.0
 10
144.2436234936879
 20
-59.42639370392787
 30
0.0
 10
145.3159476180562
 20
-56.79726626252258
 30
0.0
 10
146.3646955879983
 20
-54.16391449975156
 30
0.0
 10
146.5924714659446
 20
-53.59198325442311
 30
0.0
 10
147.0143466410902
 20
-53.09745317057224
 30
0.0
 10
147.5364027042741
 20
-52.26496127465056
 30
0.0
  0
SPLINE
  5
54
330
1F
100
AcDbEntity
  8
Layer 1
 62
   179
420
  2301728
370
    35
100
AcDbSpline
210
0.0
220
0.0
230
1.0
 70
    11
 71
     3
 72
    38
 73
    34
 74
     0
 42
0.0000000001
 43
0.0000000001
 12
1.0
 22
0.0
 32
0.0
 13
1.0
 23
0.0
 33
0.0
 40
0.0
 40
0.0
 40
0.0
 40
0.0
 40
1.0
 40
1.0
 40
1.0
 40
2.0
 40
2.0
 40
2.0
 40
3.0
 40
3.0
 40
3.0
 40
4.0
 40
4.0
 40
4.0
 40
5.0
 40
5.0
 40
5.0
 40
6.0
 40
6.0
 40
6.0
 40
7.0
 40
7.0
 40
7.0
 40
8.0
 40
8.0
 40
8.0
 40
9.0
 40
9.0
 40
9.0
 40
10.0
 40
10.0
 40
10.0
 40
11.0
 40
11.0
 40
11.0
 40
11.0
 10
15.51052620323208
 20
-54.51656009109029
 30
0.0
 10
14.57669136821752
 20
-55.04940026091625
 30
0.0
 10
13.92245006561806
 20
-55.62850667979554
 30
0.0
 10
13.18207621089734
 20
-55.77668535273037
 30
0.0
 10
12.64010492847653
 20
-55.88515701512217
 30
0.0
 10
11.98496917760859
 20
-55.42745689447933
 30
0.0
 10
11.38027387225677
 20
-55.22211032485227
 30
0.0
 10
11.62894926483496
 20
-54.64185120837097
 30
0.0
 10
11.73153322828075
 20
-53.90519155840775
 30
0.0
 10
12.15352775259505
 20
-53.51048589207034
 30
0.0
 10
13.45024977112048
 20
-52.29761586450437
 30
0.0
 10
14.84878601800034
 20
-51.18917701914364
 30
0.0
 10
16.25461731522322
 20
-50.10076478498054
 30
0.0
 10
16.62496181030713
 20
-49.81404098519747
 30
0.0
 10
17.26278120362353
 20
-49.50257914082675
 30
0.0
 10
17.60241273216126
 20
-49.63915434907175
 30
0.0
 10
18.04269718140802
 20
-49.81620145451062
 30
0.0
 10
18.59504513654028
 20
-50.42514918803754
 30
0.0
 10
18.60294497874173
 20
-50.85724841827439
 30
0.0
 10
18.67664778423837
 20
-54.88906257404037
 30
0.0
 10
18.69351758815706
 20
-58.92426906919993
 30
0.0
 10
18.57639984610456
 20
-62.95411599017584
 30
0.0
 10
18.56246817735203
 20
-63.4335093697719
 30
0.0
 10
17.66510054804214
 20
-64.22908273666133
 30
0.0
 10
17.14784124865872
 20
-64.253449073175
 30
0.0
 10
16.65452822022703
 20
-64.2766908921203
 30
0.0
 10
15.77083478730436
 20
-63.54807328724574
 30
0.0
 10
15.67686407907011
 20
-63.03632922802284
 30
0.0
 10
15.43737454951554
 20
-61.73210087045577
 30
0.0
 10
15.5297870135406
 20
-60.36456942010988
 30
0.0
 10
15.51416434139036
 20
-59.02208062710621
 30
0.0
 10
15.49786312227804
 20
-57.62129405221619
 30
0.0
 10
15.51052620323208
 20
-56.2201706588185
 30
0.0
 10
15.51052620323208
 20
-54.51656009109029
 30
0.0
  0
INSERT
  5
56
330
1F
100
AcDbEntity
  8
Layer 1
100
AcDbBlockReference
  2
block 2
 10
0.0
 20
0.0
 30
0.0
  0
ENDSEC
  0
SECTION
  2
OBJECTS
  0
DICTIONARY
  5
C
330
0
100
AcDbDictionary
281
     1
  3
ACAD_GROUP
350
D
  3
ACAD_LAYOUT
350
1A
  3
ACAD_MATERIAL
350
3B
  3
ACAD_MLEADERSTYLE
350
60
  3
ACAD_MLINESTYLE
350
17
  3
ACAD_PLOTSETTINGS
350
19
  3
ACAD_PLOTSTYLENAME
350
E
  3
ACAD_TABLESTYLE
350
5F
  3
ACAD_VISUALSTYLE
350
2A
  0
SUN
  5
3F
330
29
100
AcDbSun
 90
        1
290
     0
 63
     7
421
 16777215
 40
1.0
291
     1
 91
  2455826
 92
 54000000
292
     0
 70
     2
 71
   256
280
     1
  0
DICTIONARY
  5
D
102
{ACAD_REACTORS
330
C
102
}
330
C
100
AcDbDictionary
281
     1
  0
DICTIONARY
  5
1A
102
{ACAD_REACTORS
330
C
102
}
330
C
100
AcDbDictionary
281
     1
  3
Layout1
350
1E
  3
Layout2
350
26
  3
Model
350
22
  0
DICTIONARY
  5
3B
102
{ACAD_REACTORS
330
C
102
}
330
C
100
AcDbDictionary
281
     1
  3
ByBlock
350
3D
  3
ByLayer
350
3C
  3
Global
350
3E
  0
DICTIONARY
  5
60
102
{ACAD_REACTORS
330
C
102
}
330
C
100
AcDbDictionary
281
     1
  0
DICTIONARY
  5
17
102
{ACAD_REACTORS
330
C
102
}
330
C
100
AcDbDictionary
281
     1
  3
Standard
350
18
  0
DICTIONARY
  5
19
102
{ACAD_REACTORS
330
C
102
}
330
C
100
AcDbDictionary
281
     1
  0
ACDBDICTIONARYWDFLT
  5
E
102
{ACAD_REACTORS
330
C
102
}
330
C
100
AcDbDictionary
281
     1
  3
Normal
350
F
100
AcDbDictionaryWithDefault
340
F
  0
DICTIONARY
  5
5F
102
{ACAD_REACTORS
330
C
102
}
330
C
100
AcDbDictionary
281
     1
  0
DICTIONARY
  5
2A
102
{ACAD_REACTORS
330
C
102
}
330
C
100
AcDbDictionary
281
     1
  3
2dWireframe
350
2F
  3
3D Hidden
350
31
  3
3dWireframe
350
30
  3
Basic
350
32
  3
Brighten
350
36
  3
ColorChange
350
3A
  3
Conceptual
350
34
  3
Dim
350
35
  3
Facepattern
350
39
  3
Flat
350
2B
  3
FlatWithEdges
350
2C
  3
Gouraud
350
2D
  3
GouraudWithEdges
350
2E
  3
Linepattern
350
38
  3
Realistic
350
33
  3
Thicken
350
37
  0
LAYOUT
  5
1E
102
{ACAD_REACTORS
330
1A
102
}
330
1A
100
AcDbPlotSettings
  1

  2
none_device
  4

  6

 40
0.0
 41
0.0
 42
0.0
 43
0.0
 44
0.0
 45
0.0
 46
0.0
 47
0.0
 48
0.0
 49
0.0
140
0.0
141
0.0
142
1.0
143
1.0
 70
   688
 72
     0
 73
     0
 74
     5
  7

 75
    16
 76
     0
 77
     2
 78
   300
147
1.0
148
0.0
149
0.0
100
AcDbLayout
  1
Layout1
 70
     1
 71
     1
 10
0.0
 20
0.0
 11
12.0
 21
9.0
 12
0.0
 22
0.0
 32
0.0
 14
1.000000000000000E+20
 24
1.000000000000000E+20
 34
1.000000000000000E+20
 15
-1.000000000000000E+20
 25
-1.000000000000000E+20
 35
-1.000000000000000E+20
146
0.0
 13
0.0
 23
0.0
 33
0.0
 16
1.0
 26
0.0
 36
0.0
 17
0.0
 27
1.0
 37
0.0
 76
     0
330
1B
  0
LAYOUT
  5
26
102
{ACAD_REACTORS
330
1A
102
}
330
1A
100
AcDbPlotSettings
  1

  2
none_device
  4

  6

 40
0.0
 41
0.0
 42
0.0
 43
0.0
 44
0.0
 45
0.0
 46
0.0
 47
0.0
 48
0.0
 49
0.0
140
0.0
141
0.0
142
1.0
143
1.0
 70
   688
 72
     0
 73
     0
 74
     5
  7

 75
    16
 76
     0
 77
     2
 78
   300
147
1.0
148
0.0
149
0.0
100
AcDbLayout
  1
Layout2
 70
     1
 71
     2
 10
0.0
 20
0.0
 11
0.0
 21
0.0
 12
0.0
 22
0.0
 32
0.0
 14
0.0
 24
0.0
 34
0.0
 15
0.0
 25
0.0
 35
0.0
146
0.0
 13
0.0
 23
0.0
 33
0.0
 16
1.0
 26
0.0
 36
0.0
 17
0.0
 27
1.0
 37
0.0
 76
     0
330
23
  0
LAYOUT
  5
22
102
{ACAD_REACTORS
330
1A
102
}
330
1A
100
AcDbPlotSettings
  1

  2
none_device
  4

  6

 40
0.0
 41
0.0
 42
0.0
 43
0.0
 44
0.0
 45
0.0
 46
0.0
 47
0.0
 48
0.0
 49
0.0
140
0.0
141
0.0
142
1.0
143
1.0
 70
  1712
 72
     0
 73
     0
 74
     0
  7

 75
     0
 76
     0
 77
     2
 78
   300
147
1.0
148
0.0
149
0.0
100
AcDbLayout
  1
Model
 70
     1
 71
     0
 10
0.0
 20
0.0
 11
12.0
 21
9.0
 12
0.0
 22
0.0
 32
0.0
 14
1.000000000000000E+20
 24
1.000000000000000E+20
 34
1.000000000000000E+20
 15
-1.000000000000000E+20
 25
-1.000000000000000E+20
 35
-1.000000000000000E+20
146
0.0
 13
0.0
 23
0.0
 33
0.0
 16
1.0
 26
0.0
 36
0.0
 17
0.0
 27
1.0
 37
0.0
 76
     0
330
1F
331
29
  0
MATERIAL
  5
3D
102
{ACAD_REACTORS
330
3B
102
}
330
3B
100
AcDbMaterial
  1
ByBlock
 72
     1
 94
      127
  0
MATERIAL
  5
3C
102
{ACAD_REACTORS
330
3B
102
}
330
3B
100
AcDbMaterial
  1
ByLayer
 72
     1
 94
      127
  0
MATERIAL
  5
3E
102
{ACAD_REACTORS
330
3B
102
}
330
3B
100
AcDbMaterial
  1
Global
 72
     1
 94
      127
  0
MLINESTYLE
  5
18
102
{ACAD_REACTORS
330
17
102
}
330
17
100
AcDbMlineStyle
  2
Standard
 70
     0
  3

 62
   256
 51
90.0
 52
90.0
 71
     2
 49
0.5
 62
   256
  6
BYLAYER
 49
-0.5
 62
   256
  6
BYLAYER
  0
ACDBPLACEHOLDER
  5
F
102
{ACAD_REACTORS
330
E
102
}
330
E
  0
VISUALSTYLE
  5
2F
102
{ACAD_REACTORS
330
2A
102
}
330
2A
100
AcDbVisualStyle
  2
2dWireframe
 70
     4
177
     2
291
     0
 71
     0
176
     1
 72
     2
176
     1
 73
     0
176
     1
 90
        0
176
     1
 40
-0.6
176
     1
 41
-30.0
176
     1
 62
     5
 63
     7
421
 16777215
176
     1
 74
     1
176
     1
 91
        4
176
     1
 64
     7
176
     1
 65
   257
176
     1
 75
     1
176
     1
175
     1
176
     1
 42
1.0
176
     1
 92
        0
176
     1
 66
   257
176
     1
 43
1.0
176
     1
 76
     1
176
     1
 77
     6
176
     1
 78
     2
176
     1
 67
     7
176
     1
 79
     5
176
     1
170
     0
176
     1
171
     0
176
     1
290
     0
176
     1
 93
        1
176
     1
 44
0.0
176
     1
173
     0
176
     1
  0
VISUALSTYLE
  5
31
102
{ACAD_REACTORS
330
2A
102
}
330
2A
100
AcDbVisualStyle
  2
3D Hidden
 70
     6
177
     2
291
     0
 71
     1
176
     1
 72
     2
176
     1
 73
     2
176
     1
 90
        0
176
     1
 40
-0.6
176
     1
 41
-30.0
176
     1
 62
     5
 63
     7
421
 16777215
176
     1
 74
     2
176
     1
 91
        2
176
     1
 64
     7
176
     1
 65
   257
176
     1
 75
     2
176
     1
175
     1
176
     1
 42
40.0
176
     1
 92
        0
176
     1
 66
   257
176
     1
 43
1.0
176
     1
 76
     1
176
     1
 77
     6
176
     1
 78
     2
176
     1
 67
     7
176
     1
 79
     3
176
     1
170
     0
176
     1
171
     0
176
     1
290
     0
176
     1
 93
        1
176
     1
 44
0.0
176
     1
173
     0
176
     1
  0
VISUALSTYLE
  5
30
102
{ACAD_REACTORS
330
2A
102
}
330
2A
100
AcDbVisualStyle
  2
3dWireframe
 70
     5
177
     2
291
     0
 71
     0
176
     1
 72
     2
176
     1
 73
     0
176
     1
 90
        0
176
     1
 40
-0.6
176
     1
 41
-30.0
176
     1
 62
     5
 63
     7
421
 16777215
176
     1
 74
     1
176
     1
 91
        4
176
     1
 64
     7
176
     1
 65
   257
176
     1
 75
     1
176
     1
175
     1
176
     1
 42
1.0
176
     1
 92
        0
176
     1
 66
   257
176
     1
 43
1.0
176
     1
 76
     1
176
     1
 77
     6
176
     1
 78
     2
176
     1
 67
     7
176
     1
 79
     5
176
     1
170
     0
176
     1
171
     0
176
     1
290
     0
176
     1
 93
        1
176
     1
 44
0.0
176
     1
173
     0
176
     1
  0
VISUALSTYLE
  5
32
102
{ACAD_REACTORS
330
2A
102
}
330
2A
100
AcDbVisualStyle
  2
Basic
 70
     7
177
     2
291
     1
 71
     1
176
     1
 72
     0
176
     1
 73
     1
176
     1
 90
        0
176
     1
 40
-0.6
176
     1
 41
-30.0
176
     1
 62
     5
 63
     7
421
 16777215
176
     1
 74
     0
176
     1
 91
        4
176
     1
 64
     7
176
     1
 65
   257
176
     1
 75
     1
176
     1
175
     1
176
     1
 42
1.0
176
     1
 92
        8
176
     1
 66
     7
176
     1
 43
1.0
176
     1
 76
     1
176
     1
 77
     6
176
     1
 78
     2
176
     1
 67
     7
176
     1
 79
     5
176
     1
170
     0
176
     1
171
     0
176
     1
290
     0
176
     1
 93
        1
176
     1
 44
0.0
176
     1
173
     0
176
     1
  0
VISUALSTYLE
  5
36
102
{ACAD_REACTORS
330
2A
102
}
330
2A
100
AcDbVisualStyle
  2
Brighten
 70
    12
177
     2
291
     1
 71
     2
176
     1
 72
     2
176
     1
 73
     0
176
     1
 90
        0
176
     1
 40
-0.6
176
     1
 41
-30.0
176
     1
 62
     5
 63
     7
421
 16777215
176
     1
 74
     1
176
     1
 91
        4
176
     1
 64
     7
176
     1
 65
   257
176
     1
 75
     1
176
     1
175
     1
176
     1
 42
1.0
176
     1
 92
        8
176
     1
 66
     7
176
     1
 43
1.0
176
     1
 76
     1
176
     1
 77
     6
176
     1
 78
     2
176
     1
 67
     7
176
     1
 79
     5
176
     1
170
     0
176
     1
171
     0
176
     1
290
     0
176
     1
 93
        1
176
     1
 44
50.0
176
     1
173
     0
176
     1
  0
VISUALSTYLE
  5
3A
102
{ACAD_REACTORS
330
2A
102
}
330
2A
100
AcDbVisualStyle
  2
ColorChange
 70
    16
177
     2
291
     1
 71
     2
176
     1
 72
     2
176
     1
 73
     3
176
     1
 90
        0
176
     1
 40
-0.6
176
     1
 41
-30.0
176
     1
 62
     5
 63
     8
421
  8421504
176
     1
 74
     1
176
     1
 91
        4
176
     1
 64
     7
176
     1
 65
   257
176
     1
 75
     1
176
     1
175
     1
176
     1
 42
1.0
176
     1
 92
        8
176
     1
 66
     8
424
  8421504
176
     1
 43
1.0
176
     1
 76
     1
176
     1
 77
     6
176
     1
 78
     2
176
     1
 67
     7
176
     1
 79
     5
176
     1
170
     0
176
     1
171
     0
176
     1
290
     0
176
     1
 93
        1
176
     1
 44
0.0
176
     1
173
     0
176
     1
  0
VISUALSTYLE
  5
34
102
{ACAD_REACTORS
330
2A
102
}
330
2A
100
AcDbVisualStyle
  2
Conceptual
 70
     9
177
     2
291
     0
 71
     3
176
     1
 72
     2
176
     1
 73
     0
176
     1
 90
        0
176
     1
 40
-0.6
176
     1
 41
-30.0
176
     1
 62
     5
 63
     7
421
 16777215
176
     1
 74
     2
176
     1
 91
        2
176
     1
 64
     7
176
     1
 65
   257
176
     1
 75
     1
176
     1
175
     1
176
     1
 42
40.0
176
     1
 92
        8
176
     1
 66
     7
176
     1
 43
1.0
176
     1
 76
     1
176
     1
 77
     6
176
     1
 78
     2
176
     1
 67
     7
176
     1
 79
     3
176
     1
170
     0
176
     1
171
     0
176
     1
290
     0
176
     1
 93
        1
176
     1
 44
0.0
176
     1
173
     0
176
     1
  0
VISUALSTYLE
  5
35
102
{ACAD_REACTORS
330
2A
102
}
330
2A
100
AcDbVisualStyle
  2
Dim
 70
    11
177
     2
291
     1
 71
     2
176
     1
 72
     2
176
     1
 73
     0
176
     1
 90
        0
176
     1
 40
-0.6
176
     1
 41
-30.0
176
     1
 62
     5
 63
     7
421
 16777215
176
     1
 74
     1
176
     1
 91
        4
176
     1
 64
     7
176
     1
 65
   257
176
     1
 75
     1
176
     1
175
     1
176
     1
 42
1.0
176
     1
 92
        8
176
     1
 66
     7
176
     1
 43
1.0
176
     1
 76
     1
176
     1
 77
     6
176
     1
 78
     2
176
     1
 67
     7
176
     1
 79
     5
176
     1
170
     0
176
     1
171
     0
176
     1
290
     0
176
     1
 93
        1
176
     1
 44
-50.0
176
     1
173
     0
176
     1
  0
VISUALSTYLE
  5
39
102
{ACAD_REACTORS
330
2A
102
}
330
2A
100
AcDbVisualStyle
  2
Facepattern
 70
    15
177
     2
291
     1
 71
     2
176
     1
 72
     2
176
     1
 73
     0
176
     1
 90
        0
176
     1
 40
-0.6
176
     1
 41
-30.0
176
     1
 62
     5
 63
     7
421
 16777215
176
     1
 74
     1
176
     1
 91
        4
176
     1
 64
     7
176
     1
 65
   257
176
     1
 75
     1
176
     1
175
     1
176
     1
 42
1.0
176
     1
 92
        8
176
     1
 66
     7
176
     1
 43
1.0
176
     1
 76
     1
176
     1
 77
     6
176
     1
 78
     2
176
     1
 67
     7
176
     1
 79
     5
176
     1
170
     0
176
     1
171
     0
176
     1
290
     0
176
     1
 93
        1
176
     1
 44
0.0
176
     1
173
     0
176
     1
  0
VISUALSTYLE
  5
2B
102
{ACAD_REACTORS
330
2A
102
}
330
2A
100
AcDbVisualStyle
  2
Flat
 70
     0
177
     2
291
     1
 71
     2
176
     1
 72
     1
176
     1
 73
     1
176
     1
 90
        2
176
     1
 40
-0.6
176
     1
 41
30.0
176
     1
 62
     5
 63
     7
421
 16777215
176
     1
 74
     0
176
     1
 91
        4
176
     1
 64
     7
176
     1
 65
   257
176
     1
 75
     1
176
     1
175
     1
176
     1
 42
1.0
176
     1
 92
        8
176
     1
 66
     7
176
     1
 43
1.0
176
     1
 76
     1
176
     1
 77
     6
176
     1
 78
     2
176
     1
 67
     7
176
     1
 79
     5
176
     1
170
     0
176
     1
171
     0
176
     1
290
     0
176
     1
 93
       13
176
     1
 44
0.0
176
     1
173
     0
176
     1
  0
VISUALSTYLE
  5
2C
102
{ACAD_REACTORS
330
2A
102
}
330
2A
100
AcDbVisualStyle
  2
FlatWithEdges
 70
     1
177
     2
291
     1
 71
     2
176
     1
 72
     1
176
     1
 73
     1
176
     1
 90
        2
176
     1
 40
-0.6
176
     1
 41
30.0
176
     1
 62
     5
 63
     7
421
 16777215
176
     1
 74
     1
176
     1
 91
        4
176
     1
 64
     7
176
     1
 65
   257
176
     1
 75
     1
176
     1
175
     1
176
     1
 42
1.0
176
     1
 92
        0
176
     1
 66
   257
176
     1
 43
1.0
176
     1
 76
     1
176
     1
 77
     6
176
     1
 78
     2
176
     1
 67
     7
176
     1
 79
     5
176
     1
170
     0
176
     1
171
     0
176
     1
290
     0
176
     1
 93
       13
176
     1
 44
0.0
176
     1
173
     0
176
     1
  0
VISUALSTYLE
  5
2D
102
{ACAD_REACTORS
330
2A
102
}
330
2A
100
AcDbVisualStyle
  2
Gouraud
 70
     2
177
     2
291
     1
 71
     2
176
     1
 72
     2
176
     1
 73
     1
176
     1
 90
        2
176
     1
 40
-0.6
176
     1
 41
30.0
176
     1
 62
     5
 63
     7
421
 16777215
176
     1
 74
     0
176
     1
 91
        4
176
     1
 64
     7
176
     1
 65
   257
176
     1
 75
     1
176
     1
175
     1
176
     1
 42
1.0
176
     1
 92
        0
176
     1
 66
     7
176
     1
 43
1.0
176
     1
 76
     1
176
     1
 77
     6
176
     1
 78
     2
176
     1
 67
     7
176
     1
 79
     5
176
     1
170
     0
176
     1
171
     0
176
     1
290
     0
176
     1
 93
       13
176
     1
 44
0.0
176
     1
173
     0
176
     1
  0
VISUALSTYLE
  5
2E
102
{ACAD_REACTORS
330
2A
102
}
330
2A
100
AcDbVisualStyle
  2
GouraudWithEdges
 70
     3
177
     2
291
     1
 71
     2
176
     1
 72
     2
176
     1
 73
     1
176
     1
 90
        2
176
     1
 40
-0.6
176
     1
 41
30.0
176
     1
 62
     5
 63
     7
421
 16777215
176
     1
 74
     1
176
     1
 91
        4
176
     1
 64
     7
176
     1
 65
   257
176
     1
 75
     1
176
     1
175
     1
176
     1
 42
1.0
176
     1
 92
        0
176
     1
 66
   257
176
     1
 43
1.0
176
     1
 76
     1
176
     1
 77
     6
176
     1
 78
     2
176
     1
 67
     7
176
     1
 79
     5
176
     1
170
     0
176
     1
171
     0
176
     1
290
     0
176
     1
 93
       13
176
     1
 44
0.0
176
     1
173
     0
176
     1
  0
VISUALSTYLE
  5
38
102
{ACAD_REACTORS
330
2A
102
}
330
2A
100
AcDbVisualStyle
  2
Linepattern
 70
    14
177
     2
291
     1
 71
     2
176
     1
 72
     2
176
     1
 73
     0
176
     1
 90
        0
176
     1
 40
-0.6
176
     1
 41
-30.0
176
     1
 62
     5
 63
     7
421
 16777215
176
     1
 74
     1
176
     1
 91
        4
176
     1
 64
     7
176
     1
 65
   257
176
     1
 75
     7
176
     1
175
     7
176
     1
 42
1.0
176
     1
 92
        8
176
     1
 66
     7
176
     1
 43
1.0
176
     1
 76
     1
176
     1
 77
     6
176
     1
 78
     2
176
     1
 67
     7
176
     1
 79
     5
176
     1
170
     0
176
     1
171
     0
176
     1
290
     0
176
     1
 93
        1
176
     1
 44
0.0
176
     1
173
     0
176
     1
  0
VISUALSTYLE
  5
33
102
{ACAD_REACTORS
330
2A
102
}
330
2A
100
AcDbVisualStyle
  2
Realistic
 70
     8
177
     2
291
     0
 71
     2
176
     1
 72
     2
176
     1
 73
     0
176
     1
 90
        0
176
     1
 40
-0.6
176
     1
 41
-30.0
176
     1
 62
     5
 63
     7
421
 16777215
176
     1
 74
     1
176
     1
 91
        0
176
     1
 64
     7
176
     1
 65
   257
176
     1
 75
     1
176
     1
175
     1
176
     1
 42
1.0
176
     1
 92
        8
176
     1
 66
     8
424
  7895160
176
     1
 43
1.0
176
     1
 76
     1
176
     1
 77
     6
176
     1
 78
     2
176
     1
 67
     7
176
     1
 79
     5
176
     1
170
     0
176
     1
171
     0
176
     1
290
     0
176
     1
 93
       13
176
     1
 44
0.0
176
     1
173
     0
176
     1
  0
VISUALSTYLE
  5
37
102
{ACAD_REACTORS
330
2A
102
}
330
2A
100
AcDbVisualStyle
  2
Thicken
 70
    13
177
     2
291
     1
 71
     2
176
     1
 72
     2
176
     1
 73
     0
176
     1
 90
        0
176
     1
 40
-0.6
176
     1
 41
-30.0
176
     1
 62
     5
 63
     7
421
 16777215
176
     1
 74
     1
176
     1
 91
        4
176
     1
 64
     7
176
     1
 65
   257
176
     1
 75
     1
176
     1
175
     1
176
     1
 42
1.0
176
     1
 92
       12
176
     1
 66
     7
176
     1
 43
1.0
176
     1
 76
     1
176
     1
 77
     6
176
     1
 78
     2
176
     1
 67
     7
176
     1
 79
     5
176
     1
170
     0
176
     1
171
     0
176
     1
290
     0
176
     1
 93
        1
176
     1
 44
0.0
176
     1
173
     0
176
     1
  0
ENDSEC
  0
EOF
